<svg xmlns="http://www.w3.org/2000/svg" viewBox="0 0 302.79 289.68"><defs><style>.cls-1{fill:#5f5f0d;}.cls-2{fill:#e3e320;}.cls-3{fill:#803d0e;}.cls-4{fill:#c8631c;}.cls-5{fill:#450a0a;}.cls-6{fill:#bc1b1b;}.cls-7{fill:#060636;}.cls-8{fill:#1e1ecf;}.cls-9{fill:#123f7d;}.cls-10{fill:#3d8ff8;}.cls-11{fill:#10737d;}.cls-12{fill:#24c9c9;}.cls-13{fill:#065606;}.cls-14{fill:#1cb71c;}.cls-15{fill:#5e811d;}.cls-16{fill:#8fc232;}</style></defs><g id="ElementLayer"><g id="Element"><path class="cls-1" d="M82.41,256.54a8.7,8.7,0,0,0,3.4,3.85,1.35,1.35,0,0,0,1.81-.16,78.09,78.09,0,0,0,6.19-6.15,1.1,1.1,0,0,0,.94,0L109.85,229l-1.33.08c.68-1,1.23-1.77,1.81-2.62l.84.35,3.7-6.14a38.54,38.54,0,0,1-1.67-4.2,3.34,3.34,0,0,1,.16-1.33l1-1a4.5,4.5,0,0,0,2.19-.51c1.11-.12.42-.88.3-1.17-1-2.39-.57-4.55.54-6.81,1.34-2.73,2.78-5.41,4.27-8.12a16.11,16.11,0,0,0-6.21-3.67c-1,1.82-2.06,3.6-3.16,5.51-1.68-3.14-3.14-6.22-4.94-9.09a6.13,6.13,0,0,1-.64-6.05c.26-.65.81-1.47.14-2.26h0c-1.22-1.64-3-1.93-4.83-1.88-1.8-3.4-3.75-6.71-5.77-10-.24-.37-.35-1-1-.82A5.43,5.43,0,0,0,90.28,172c-.67.74-.11,1.33.24,1.92,2.63,4.39,5.14,8.85,7.44,13.42a1.92,1.92,0,0,1,.28,1.4c-.64,2.43-1.27,4.87-1.94,7.44a17.34,17.34,0,0,1-2.19-4,47,47,0,0,0-3.86-8.76c-.67-1.16-1.09-2.75-2.83-3a4.53,4.53,0,0,0-4.15,1.71,2.49,2.49,0,0,0-.84,1.62c-.1,1.88-.2,3.76-.36,5.63-.31,3.73-.67,7.45-1,11.33a25.92,25.92,0,0,1-3.33-3c.76-4.79,1-9.58,1.54-14.35,0-.47.37-1.12-.49-1.28a16.74,16.74,0,0,0-5.22-.6c-.68-.08-1,.24-1,.9,0,.49-.09,1-.14,1.47-.31,3.09-.62,6.18-1,9.54a1.85,1.85,0,0,0-2.86,0,5.93,5.93,0,0,0-2.09,3.48,1.61,1.61,0,0,0,.85,2.14c1,.57,1.94,1.23,2.93,1.87-.32,1.92-.64,3.8-1,6l-4-5.73c-.24-.34-.3-.92-.95-.67a13.47,13.47,0,0,0-4.78,3c-.54.35-.33.72-.06,1.13a68.74,68.74,0,0,0,8.23,10.76,2.57,2.57,0,0,1,.84,2c-.16,3.91-.11,7.83.06,11.73a47.73,47.73,0,0,0,1.06,8.2,4,4,0,0,1,1.32-.15c4.32.66,4.61-2.53,4.61-2.53a48.66,48.66,0,0,0,0-5.94c-.1-1.65,0-3.32-.05-5.22l4.26,3.56c-.27,3.61-.27,3.61,2.37,4.65-.17.62-.34,1.25-.56,2.31L81.91,250c1.45.46,2.94.87,4.54,1.35-1.3,1.24-2.43,2.38-3.63,3.45A1.38,1.38,0,0,0,82.41,256.54Zm21.53-41.77a34.48,34.48,0,0,0-2.78-6.83,1.92,1.92,0,0,1-.36-1.39l2.51-9.05c2,3.64,3.41,7.25,5,10.78,1.34,2.91.25,3.61.13,4a25.45,25.45,0,0,0-.57,4.25s0,0,0,.06c0,.25-.71.92-.83.91C105.55,217.14,104.38,216.62,103.94,214.77Zm-15.39-18,.23,0c1.4,3.42,2.84,6.83,4.17,10.28.36.94-.45,1.77-.63,2.8a38.57,38.57,0,0,1-4.72-3.18C87.92,203.37,88.23,200.08,88.55,196.79Zm-13,16.32a63.44,63.44,0,0,1,.75-6.87,24.19,24.19,0,0,1,3.43,3,1,1,0,0,1,.37.81c0,2.64,0,5.27,0,7.91l-.51.22c-1.25-1.32-2.5-2.65-3.76-4A1.25,1.25,0,0,1,75.58,213.11Zm17.2,12c.13-.87.17-1.66,0-1.71h0l-5.49-2.22c-.29-2,0-3.92-.19-6,1,.21,1.54.92,2.39,1.26l-.76,2a21.78,21.78,0,0,0,6.13,2.89l4.48-.42c.27-.07,3.19,2.09,3.63,2.23.69.61-12.87,17.37-14,17.76C87.87,239.5,91.19,229.44,92.78,225.09Z"/><path class="cls-1" d="M115,228.71l-5.1.3-15.1,25.08c1.1.38.9-.93,1.67-1.24l1.71.22a45.86,45.86,0,0,0,10.33.57c2.05-.21,4.06-.68,5.51-2.36.3.14.52-.35.83-.11a6.9,6.9,0,0,0,.91,4,2,2,0,0,0,2.33,1.09c3.35-.83,6.72-1.61,10.09-2.39.49-.12,1-.21,1.09-.82.91-2.11.29-4-1-5.7-.5-.87-1.28-.67-2-.5-2.11.48-4.22,1-6.54,1.52.7-4.19,1.34-8.11,2-12.09,4,.15,7.85.28,11.7.46.78,0,1.33-.09,1.51-.93a15.4,15.4,0,0,0,.24-5.62c-.11-.67-.48-.89-1.12-.9-1.39,0-2.78-.08-4.16-.16a68.88,68.88,0,0,1-7.13-.35c.24-2,.47-3.84.7-5.71.06-.51.3-1.15-.64-1.1a17.79,17.79,0,0,0-6-.77c-.65-.16-1.37,0-1.92-.53l-3.7,6.14A29.56,29.56,0,0,1,115,228.71ZM110.51,245c-2.54,2.48-5.85,1.44-9.14,1a134.38,134.38,0,0,1,10-9.68l1.33-.08C113,239.51,112.85,242.7,110.51,245Z"/><path class="cls-2" d="M107.87,213.82a64.45,64.45,0,0,1,7.23-17.48,7.63,7.63,0,0,1,.65-.77L120,198c-1,1.94-2,3.79-2.94,5.66a61.7,61.7,0,0,0-4.39,11.84,3.17,3.17,0,0,0-.17,1.33c.27,1.14-.34,5.48-1.32,6.25-1.67,1.45-5.09,5-6.32,8.41a83.48,83.48,0,0,1-3.38,7.78c-2.42,5.08-4.94,10.11-7.42,15.17a1.1,1.1,0,0,1-.94,0,13.14,13.14,0,0,1-3.74-1.74c-.63-.53-.8-1-.45-1.67,1.56-3.13,3.35-6.15,4.86-9.31a138.43,138.43,0,0,1,8.35-14.78c1.06-1.64,2.87-4,4.17-5.71C107.3,219.9,107.71,214.46,107.87,213.82Z"/><path class="cls-2" d="M73.2,236.72c-1.1-.05-2.15.53-3.33.33a35.46,35.46,0,0,1-1-7.33,158.66,158.66,0,0,1,.31-18.88c.66-6.61,2.27-13.07,2.81-19.69.26-3.12.56-6.24.84-9.37a16.8,16.8,0,0,1,5.23.6c-.79,7.8-1.51,15.61-3,23.32a63.59,63.59,0,0,0-1,9C74,218.07,74,221.48,74,224.9a65.38,65.38,0,0,0,.52,7.65c.08.68-.09,3.67-1.31,4.17"/><path class="cls-2" d="M127.54,247.68c1.27,1.74,1.89,3.59,1,5.7-1.33-.28-2.5.39-3.74.64-2.25.46-4.48,1-6.82,1.57-.11-1.57,0-3-.74-4.25-1-.18-2-.38-2.93-.54-.59-.09-1.12,0-1,.8h0c-1.2-.3-2,.74-3,1-3.1.88-9.63,0-12.92-.46.5-1.66,2.52-2.62,2.81-4.33,3.13.22,7.86,1.45,10.84-1.08l-.45,3.44c.45.31.81.4,1.14.2.92-5.13,2-10.17,2.64-15.27.61-4.52,1.39-9,1.71-13.58a17.76,17.76,0,0,1,6,.77c0,1.67-.33,3.3-.52,4.95-.93,7.7-2.2,15.35-3.56,23-.08.45-.32.93.22,1.3.49-.27.38-.72.46-1.09s.19-.92.73-1C122.13,248.93,124.77,248,127.54,247.68Z"/><path class="cls-2" d="M86.73,180.69c2.16,2.89,1.11,6.09.88,9.21s-.5,6.25-.79,9.37c-.49,5.18-1,10.35-1.22,15.54,0,.81,0,1.62,0,2.43a19.48,19.48,0,0,1-.54,3.57c-.51,3.22-2,6.09-3,9.17H80a8.56,8.56,0,0,1,.18-3,117.32,117.32,0,0,0,.14-11.86c0-4.36.5-8.67,1-13,.44-4.09.73-8.2,1.09-12.31.13-1.56.29-3.12.45-4.68a6,6,0,0,0-.29-2.78A4.54,4.54,0,0,1,86.73,180.69Z"/><path class="cls-2" d="M106.12,182.34c-1.42,4.16-2.3,8.47-3.45,12.71-1.92,7-3.54,14.2-6.09,21.07-.41,1.09-.9,2.16-1.39,3.21a4.36,4.36,0,0,0-.45,1.81h0a44.78,44.78,0,0,1-5.67-2.43c1.11-2.79,2.17-5.44,3.22-8.1,2-5.11,3.16-10.48,4.72-15.72,1.35-4.51,2.19-9.16,3.66-13.63.12-.36.15-.71.6-.79C103.16,180.41,104.9,180.7,106.12,182.34Z"/><path class="cls-2" d="M92.12,223.7a28,28,0,0,1-2.18,5.92c-1.86,4.42-3.67,19.58-4.08,20.44.51.76-3.48.57-3.71-.19-.86-2.72-.78-11.62-.23-14.39a69.68,69.68,0,0,1,4.71-14Z"/><path class="cls-2" d="M104.21,236.42a21.94,21.94,0,0,1,1.5-3.43,4.62,4.62,0,0,1,5.31-3.25,24,24,0,0,0,2.68,0,32.79,32.79,0,0,1-.69,5.74A76.85,76.85,0,0,0,104.21,236.42Z"/><path class="cls-2" d="M133.63,230.22a25.19,25.19,0,0,0-.44,5.45c-4-.69-7.88,0-11.85-.66a32.66,32.66,0,0,1,.6-5.1C125.85,230.28,129.67,230.06,133.63,230.22Z"/></g><g id="Element-2" data-name="Element"><path class="cls-3" d="M181.78,272.54a8.58,8.58,0,0,0,5.13.32,1.34,1.34,0,0,0,1.16-1.39,74.78,74.78,0,0,0,0-8.73c.29-.16.59-.3.68-.66l-7-28.42-.88,1-.58-3.13.84-.35-1.72-6.95a38.46,38.46,0,0,1-4.15-1.8,3.39,3.39,0,0,1-.82-1V220a4.54,4.54,0,0,0,1.19-1.91c.7-.87-.33-.92-.62-1-2.4-1-3.61-2.81-4.42-5.2-1-2.88-1.86-5.79-2.72-8.76a16.1,16.1,0,0,0-7,1.79c.55,2,1.08,4,1.66,6.14-3.41-1-6.62-2.18-9.91-2.93a6.12,6.12,0,0,1-4.73-3.83c-.28-.65-.47-1.61-1.5-1.7h0c-2-.3-3.45.73-4.74,2.09-3.67-1.13-7.39-2.09-11.13-3-.43-.1-1-.47-1.32.15a5.45,5.45,0,0,0-1.59,5.33c0,1,.86,1,1.54,1.19,4.95,1.24,9.87,2.62,14.73,4.23a1.91,1.91,0,0,1,1.19.79c1.26,2.18,2.53,4.34,3.88,6.64a17.35,17.35,0,0,1-4.4-1.31,46.31,46.31,0,0,0-8.92-3.46c-1.29-.36-2.71-1.18-4.12-.13a4.56,4.56,0,0,0-1.73,4.15,2.57,2.57,0,0,0,.55,1.74c1.26,1.4,2.52,2.8,3.73,4.24,2.41,2.86,4.78,5.74,7.27,8.73a24.85,24.85,0,0,1-4.46.26c-2.83-3.93-6-7.5-9-11.24-.29-.37-.53-1.06-1.24-.56a16.93,16.93,0,0,0-4.12,3.27.81.81,0,0,0-.08,1.36c.33.36.62.76.93,1.14l6.07,7.42c-1.44.13-2,.85-2,2.06a5.92,5.92,0,0,0,1,3.94,1.61,1.61,0,0,0,2.11.91c1.11-.3,2.24-.5,3.39-.76l3.55,5-6.9-1.19c-.41-.07-.86-.44-1.15.2a13.22,13.22,0,0,0-1.22,5.53c-.15.64.27.74.75.85A68.19,68.19,0,0,0,142.35,254a2.57,2.57,0,0,1,2,.83c2.66,2.87,5.45,5.61,8.33,8.25a48.54,48.54,0,0,0,6.54,5.05,4.18,4.18,0,0,1,.83-1c3.52-2.59,1.47-5.05,1.47-5.05a48.53,48.53,0,0,0-4.21-4.18c-1.24-1.11-2.37-2.33-3.72-3.66l5.52-.49c2.36,2.73,2.36,2.73,5,1.6.32.56.64,1.13,1.23,2l11.46,10.94c1.36-.71,2.71-1.47,4.17-2.26,0,1.8,0,3.41-.13,5A1.38,1.38,0,0,0,181.78,272.54Zm-14.26-44.78a34.73,34.73,0,0,0-6.79-2.86c-.47-.16-1-.25-1.24-.73L154.88,216c4,1.14,7.52,2.72,11.17,4.06,3,1.11,2.73,2.38,2.91,2.73a24.09,24.09,0,0,0,2.6,3.41s0,.05,0,.07a1.87,1.87,0,0,1,0,1.23C170.33,228.3,169.13,228.76,167.52,227.76Zm-23.58-1.82.12-.2c3.41,1.43,6.83,2.83,10.21,4.32.92.41.93,1.58,1.53,2.43a39,39,0,0,1-5.58,1.09Zm2.34,20.72a65.67,65.67,0,0,1-4.32-5.39,24.91,24.91,0,0,1,4.55-.32,1.07,1.07,0,0,1,.83.32c1.86,1.87,3.73,3.71,5.6,5.57l-.19.51c-1.82,0-3.64-.1-5.46-.13A1.31,1.31,0,0,1,146.28,246.66Zm20.64-3.7c-.53-.71-1.06-1.29-1.19-1.23h0L160.28,244c-1.58-1.18-2.8-2.73-4.35-4.09.85-.56,1.74-.44,2.58-.8l.86,1.93a21.67,21.67,0,0,0,6.37-2.29l2.87-3.47c.15-.24,3.73-.77,4.15-1,.91-.07,3.15,21.38,2.62,22.48C173.61,256.63,168.86,247.16,166.92,243Z"/><path class="cls-3" d="M185.15,229.84l-3.39,3.82,7,28.42c1-.51,0-1.29.3-2.06l1.37-1a45.6,45.6,0,0,0,7.7-6.91c1.31-1.6,2.4-3.35,2.23-5.57.31-.11.12-.61.51-.67a6.94,6.94,0,0,0,3.48,2.2,2,2,0,0,0,2.42-.87c1.78-3,3.62-5.9,5.44-8.84.27-.43.55-.84.2-1.35-.85-2.14-2.6-3-4.72-3.34-1-.26-1.38.43-1.79,1.08l-3.55,5.7-7.12-10c2.93-2.72,5.74-5.35,8.6-7.95.57-.52.88-1,.41-1.72a15.39,15.39,0,0,0-3.8-4.16,1,1,0,0,0-1.43.16c-1,1-2,1.91-3.06,2.83a67.51,67.51,0,0,1-5.28,4.8c-1.23-1.56-2.38-3.05-3.54-4.53-.32-.4-.6-1-1.23-.33a17.9,17.9,0,0,0-4.78,3.69c-.57.34-1,1-1.73,1l1.72,6.95A29,29,0,0,1,185.15,229.84Zm8.35,14.65c0,3.56-3.11,5.16-5.72,7.22A134.9,134.9,0,0,1,188,237.8l.88-1C191.39,238.86,193.54,241.22,193.5,244.49Z"/><path class="cls-4" d="M169.63,224.31a64,64,0,0,1-7.23-17.48,6.73,6.73,0,0,1-.09-1l4.7-1.31c.66,2.08,1.28,4.09,1.91,6.08a62.16,62.16,0,0,0,5.27,11.49,3.12,3.12,0,0,0,.82,1c1,.62,3.63,4.12,3.47,5.36-.15,2.21-.08,7.12,1.47,10.41a82.47,82.47,0,0,1,3.11,7.9c1.87,5.31,3.64,10.66,5.46,16-.09.36-.39.5-.67.65a13,13,0,0,1-3.87,1.42c-.82.07-1.25-.12-1.5-.86-1.11-3.32-2-6.72-3.13-10a136.9,136.9,0,0,1-4.54-16.37c-.41-1.9-.81-4.86-1.08-7C173.52,229,170,224.88,169.63,224.31Z"/><path class="cls-4" d="M161.28,265c-.82.75-1.15,1.9-2.13,2.6a36.22,36.22,0,0,1-5.87-4.5,158.38,158.38,0,0,1-13.1-13.57c-4.21-5.14-7.63-10.85-11.92-15.92-2-2.39-4-4.81-6-7.22a16.93,16.93,0,0,1,4.12-3.27c5,6.07,10,12.1,14.35,18.61a63,63,0,0,0,5.66,7c2.29,2.54,4.71,4.94,7.13,7.35a60.17,60.17,0,0,0,5.77,5c.54.43,2.52,2.67,2,3.88"/><path class="cls-4" d="M207.45,234.34c2.13.33,3.87,1.2,4.72,3.34-1.14.74-1.49,2-2.19,3.1-1.28,1.92-2.45,3.9-3.72,5.94-1.18-1-2.14-2.07-3.52-2.48-.84.57-1.66,1.11-2.46,1.69-.48.35-.81.76-.15,1.28h0c-1.07.64-.86,1.9-1.37,2.82-1.58,2.81-6.85,6.78-9.47,8.81-.81-1.52-.07-3.63-1.07-5,2.36-2.05,6.58-4.53,6.9-8.43l2.12,2.75c.53-.1.85-.29.94-.67-3-4.27-5.8-8.57-8.91-12.66-2.76-3.64-5.39-7.37-8.39-10.83a17.81,17.81,0,0,1,4.78-3.68c1.15,1.21,2.1,2.57,3.12,3.88,4.79,6.1,9.29,12.41,13.73,18.77.26.37.42.89,1.07.77.16-.54-.24-.78-.45-1.1s-.52-.79-.2-1.24C204.51,239.06,205.72,236.53,207.45,234.34Z"/><path class="cls-4" d="M131.28,215.84c3.57.51,5.08,3.52,7.12,5.89s4.06,4.78,6.06,7.19c3.31,4,6.61,8,10.12,11.85.54.6,1.12,1.18,1.71,1.73a19.57,19.57,0,0,1,2.13,2.91c1.92,2.63,2.92,5.68,4.36,8.6l-1.42,1.43a8.06,8.06,0,0,1-2-2.22c-2.5-3.09-5.5-5.67-8.27-8.49a128.52,128.52,0,0,1-8.5-9.87c-2.59-3.21-5.29-6.32-7.93-9.48q-1.51-1.8-3-3.63a6.11,6.11,0,0,0-2.18-1.76A4.56,4.56,0,0,1,131.28,215.84Z"/><path class="cls-4" d="M146.15,203.29c1.94,3.94,4.36,7.61,6.54,11.43,3.62,6.35,7.53,12.54,10.57,19.21.49,1.06.89,2.16,1.29,3.26a4.48,4.48,0,0,0,1,1.59v0a45.18,45.18,0,0,1-5.72,2.29c-1.19-2.75-2.31-5.38-3.45-8-2.18-5-5.16-9.64-7.75-14.46-2.24-4.14-4.92-8-7-12.23-.17-.33-.4-.6-.14-1C142.7,204,144.14,203,146.15,203.29Z"/><path class="cls-4" d="M165.47,242.45a28,28,0,0,1,2.63,5.73c1.8,4.44,11.23,16.44,11.55,17.34.9.18-2.06,2.86-2.76,2.49-2.53-1.32-8.76-7.66-10.32-10A70.34,70.34,0,0,1,160,244.76Z"/><path class="cls-4" d="M183,242.89a20.64,20.64,0,0,1-1.36-3.49,4.61,4.61,0,0,1,1.46-6.05,26.08,26.08,0,0,0,1.89-1.9,32.45,32.45,0,0,1,3.57,4.55A73.88,73.88,0,0,0,183,242.89Z"/><path class="cls-4" d="M199.43,217.68a25.05,25.05,0,0,0,3.54,4.17c-3.33,2.34-5.56,5.61-8.85,7.92a33.47,33.47,0,0,1-3.18-4C194,223.23,196.51,220.38,199.43,217.68Z"/></g><g id="Element-3" data-name="Element"><path class="cls-5" d="M262.43,213.66a8.67,8.67,0,0,0,3.88-3.38,1.35,1.35,0,0,0-.15-1.8,75,75,0,0,0-6.09-6.26,1.1,1.1,0,0,0,0-.94L235.17,186c0,.43.05.87.07,1.32l-2.6-1.82c.11-.29.23-.57.35-.85l-6.1-3.75a38.72,38.72,0,0,1-4.21,1.63,3.13,3.13,0,0,1-1.32-.17l-1-1a4.67,4.67,0,0,0-.5-2.2c-.11-1.11-.87-.42-1.17-.3-2.39,1-4.54.52-6.79-.61-2.72-1.36-5.38-2.82-8.07-4.34a16.05,16.05,0,0,0-3.73,6.18l5.48,3.22c-3.15,1.65-6.24,3.08-9.12,4.86a6.12,6.12,0,0,1-6,.59c-.65-.27-1.46-.83-2.26-.17h0c-1.64,1.21-1.95,3-1.91,4.82-3.42,1.78-6.74,3.7-10,5.7-.38.23-1,.33-.84,1A5.44,5.44,0,0,0,178,205c.73.67,1.32.12,1.92-.23,4.41-2.6,8.88-5.07,13.47-7.32a1.92,1.92,0,0,1,1.4-.28c2.42.67,4.85,1.32,7.41,2a17.34,17.34,0,0,1-4.05,2.16,46.56,46.56,0,0,0-8.79,3.79c-1.16.65-2.75,1.06-3,2.8a4.55,4.55,0,0,0,1.68,4.18,2.53,2.53,0,0,0,1.61.85c1.87.11,3.75.23,5.62.4,3.72.35,7.44.74,11.31,1.13a26.49,26.49,0,0,1-3,3.31c-4.77-.81-9.56-1.11-14.32-1.67-.47-.06-1.12-.38-1.28.47a17.14,17.14,0,0,0-.65,5.23c-.09.68.23,1,.89,1,.49,0,1,.1,1.47.16l9.52,1a1.86,1.86,0,0,0,0,2.87,5.91,5.91,0,0,0,3.46,2.12,1.61,1.61,0,0,0,2.14-.83c.58-1,1.24-1.93,1.89-2.92l6,1.07-5.75,4c-.34.23-.92.29-.68.94a13.22,13.22,0,0,0,3,4.81c.34.55.71.33,1.13.07a69.06,69.06,0,0,0,10.81-8.14,2.55,2.55,0,0,1,2-.82c3.91.19,7.82.18,11.72,0a47.53,47.53,0,0,0,8.2-1,4,4,0,0,1-.14-1.33c.7-4.32-2.49-4.63-2.49-4.63a49,49,0,0,0-5.93,0c-1.66.08-3.32,0-5.22,0l3.6-4.23c3.6.3,3.6.3,4.66-2.33.62.17,1.25.35,2.3.58l15.84-.24c.47-1.45.9-2.94,1.39-4.53,1.23,1.31,2.36,2.45,3.42,3.66A1.38,1.38,0,0,0,262.43,213.66Zm-41.54-21.92a34.58,34.58,0,0,0-6.84,2.72,2,2,0,0,1-1.4.35l-9-2.59c3.66-2,7.27-3.35,10.81-4.95,2.92-1.32,3.61-.22,4-.1a25.45,25.45,0,0,0,4.24.61s0,0,.07,0c.24,0,.91.72.89.84C223.27,190.15,222.74,191.32,220.89,191.74ZM202.8,207l-.05-.22c3.43-1.37,6.85-2.78,10.31-4.09.94-.35,1.76.47,2.78.66a38.42,38.42,0,0,1-3.21,4.69ZM219,220.12a66.22,66.22,0,0,1-6.86-.82,24.13,24.13,0,0,1,3-3.41,1,1,0,0,1,.81-.36c2.63,0,5.27,0,7.9,0l.22.51c-1.33,1.24-2.67,2.48-4,3.73A1.27,1.27,0,0,1,219,220.12ZM231.1,203c-.87-.13-1.65-.18-1.7,0h0c-.76,1.82-1.51,3.65-2.27,5.47-2,.27-3.91,0-6,.13.22-1,.93-1.53,1.29-2.37l2,.77a21.65,21.65,0,0,0,2.93-6.11l-.38-4.48c-.06-.28,2.12-3.17,2.27-3.61.61-.69,17.23,13,17.62,14.18C245.46,208,235.44,204.62,231.1,203Z"/><path class="cls-5" d="M234.92,180.84c.09,1.81.17,3.42.25,5.11l24.92,15.33c.39-1.1-.92-.9-1.22-1.68.07-.47.15-1.09.23-1.71a45.39,45.39,0,0,0,.66-10.34c-.19-2.05-.64-4.07-2.31-5.54.14-.29-.35-.51-.1-.83a6.84,6.84,0,0,0,4-.87,1.94,1.94,0,0,0,1.1-2.32c-.8-3.36-1.54-6.74-2.3-10.12-.11-.49-.2-1-.81-1.1-2.1-.93-4-.32-5.7.93-.87.49-.68,1.27-.52,2,.47,2.13,1,4.24,1.46,6.56l-12-2.1c.18-4,.35-7.85.56-11.7,0-.78-.08-1.34-.92-1.52a15.35,15.35,0,0,0-5.61-.3,1,1,0,0,0-.91,1.11c0,1.39-.1,2.79-.2,4.17a68.92,68.92,0,0,1-.4,7.13c-2-.26-3.84-.51-5.7-.74-.51-.07-1.16-.32-1.11.62a17.84,17.84,0,0,0-.83,6c-.16.65,0,1.38-.54,1.92l6.1,3.75A30,30,0,0,1,234.92,180.84Zm16.22,4.59c2.45,2.57,1.39,5.87,1,9.16a134.64,134.64,0,0,1-9.58-10.07c0-.12,0-.64-.07-1.33C245.69,182.89,248.87,183.06,251.14,185.43Z"/><path class="cls-6" d="M220,187.79a64.24,64.24,0,0,1-17.4-7.39,8.92,8.92,0,0,1-.77-.65l2.44-4.23c1.93,1,3.77,2,5.63,3a62,62,0,0,0,11.79,4.5,3.15,3.15,0,0,0,1.32.17c1.14-.26,5.48.39,6.24,1.39,1.44,1.68,4.93,5.13,8.34,6.39,2.65,1,5.2,2.21,7.74,3.45,5.06,2.47,10.07,5,15.09,7.57a1.07,1.07,0,0,1,0,.94,13,13,0,0,1-1.76,3.73c-.54.62-1,.79-1.68.43-3.11-1.59-6.11-3.41-9.25-5a137.43,137.43,0,0,1-14.7-8.49c-1.63-1.07-4-2.9-5.66-4.22C226.05,188.42,220.62,188,220,187.79Z"/><path class="cls-6" d="M242.55,222.7c-.06,1.1.51,2.16.3,3.34a35.42,35.42,0,0,1-7.33.91,156.09,156.09,0,0,1-18.85-.48c-6.6-.71-13-2.38-19.65-3-3.12-.29-6.24-.61-9.35-.92a16.83,16.83,0,0,1,.64-5.23c7.79.85,15.58,1.64,23.27,3.2a64.9,64.9,0,0,0,8.94,1c3.41.19,6.82.21,10.23.24a65,65,0,0,0,7.64-.46c.68-.07,3.67.13,4.16,1.35"/><path class="cls-6" d="M254,168.4c1.74-1.25,3.59-1.86,5.7-.93-.3,1.33.37,2.51.61,3.75.43,2.26,1,4.5,1.5,6.84a10.28,10.28,0,0,0-4.25.7c-.19,1-.4,2-.56,2.94-.1.58-.05,1.11.78,1h0c-.31,1.2.72,2,1,3,.85,3.11-.13,9.64-.58,12.93-1.64-.52-2.59-2.54-4.29-2.85.24-3.13,1.52-7.85-1-10.86l3.43.48c.32-.45.41-.81.21-1.14-5.11-1-10.13-2-15.22-2.78-4.52-.65-9-1.47-13.56-1.83a17.84,17.84,0,0,1,.83-6c1.66,0,3.29.36,4.94.57,7.68,1,15.31,2.34,22.93,3.76.44.09.92.33,1.3-.2-.26-.5-.72-.39-1.09-.47s-.92-.2-1-.74C255.18,173.83,254.27,171.18,254,168.4Z"/><path class="cls-6" d="M186.7,208.67c2.9-2.14,6.09-1.06,9.2-.8s6.24.55,9.36.87c5.16.53,10.33,1.08,15.52,1.35.8,0,1.61.06,2.42,0a19.29,19.29,0,0,1,3.56.57c3.21.54,6.07,2,9.13,3.07v2a8,8,0,0,1-2.95-.21c-3.95-.44-7.91-.18-11.85-.24-4.36-.07-8.66-.58-13-1.07-4.09-.48-8.19-.8-12.29-1.2-1.56-.15-3.11-.31-4.67-.49a5.83,5.83,0,0,0-2.78.27A4.57,4.57,0,0,1,186.7,208.67Z"/><path class="cls-6" d="M188.51,189.27c4.15,1.46,8.45,2.38,12.67,3.57,7,2,14.15,3.66,21,6.28,1.09.41,2.14.92,3.19,1.42a4.35,4.35,0,0,0,1.8.46h0a45.48,45.48,0,0,1-2.48,5.65l-8.06-3.3c-5.08-2.06-10.43-3.25-15.66-4.86-4.49-1.39-9.12-2.27-13.58-3.79-.36-.12-.71-.15-.78-.6C186.56,192.22,186.87,190.48,188.51,189.27Z"/><path class="cls-6" d="M229.71,203.65a27.38,27.38,0,0,1,5.89,2.23c4.4,1.91,19.53,3.85,20.39,4.27.76-.51.53,3.48-.23,3.71-2.72.83-11.61.68-14.37.1a69,69,0,0,1-13.95-4.84Z"/><path class="cls-6" d="M242.53,191.66a20.53,20.53,0,0,1-3.42-1.54,4.6,4.6,0,0,1-3.2-5.33,24.12,24.12,0,0,0,0-2.69,31.71,31.71,0,0,1,5.73.75A74.57,74.57,0,0,0,242.53,191.66Z"/><path class="cls-6" d="M236.58,162.15a24.46,24.46,0,0,0,5.45.49c-.73,4,0,7.9-.77,11.86a32.85,32.85,0,0,1-5.09-.65C236.58,169.94,236.39,166.12,236.58,162.15Z"/></g><g id="Element-4" data-name="Element"><path class="cls-7" d="M279.08,115a8.77,8.77,0,0,0,.36-5.14,1.35,1.35,0,0,0-1.38-1.17,77.06,77.06,0,0,0-8.73-.11c-.15-.29-.29-.6-.65-.69l-28.45,6.79,1,.89-3.13.55c-.13-.29-.24-.57-.35-.85l-7,1.66A39.47,39.47,0,0,1,229,121a3.37,3.37,0,0,1-1.06.81h-1.35a4.59,4.59,0,0,0-1.91-1.21c-.86-.7-.92.32-1,.61-1,2.4-2.84,3.59-5.23,4.38-2.89,1-5.81,1.81-8.78,2.64a16,16,0,0,0,1.73,7l6.15-1.6c-1.06,3.4-2.24,6.6-3,9.89a6.14,6.14,0,0,1-3.87,4.7c-.65.27-1.61.45-1.71,1.48h0c-.31,2,.69,3.47,2,4.77-1.17,3.66-2.16,7.38-3.07,11.11-.11.43-.47.95.14,1.32a5.41,5.41,0,0,0,5.31,1.64c1,0,1-.85,1.2-1.53,1.29-5,2.7-9.86,4.36-14.7a1.9,1.9,0,0,1,.8-1.19c2.18-1.24,4.36-2.5,6.66-3.82a17.8,17.8,0,0,1-1.34,4.39,46.52,46.52,0,0,0-3.54,8.9c-.36,1.29-1.2,2.7-.16,4.12a4.53,4.53,0,0,0,4.13,1.77,2.51,2.51,0,0,0,1.74-.54c1.41-1.25,2.82-2.49,4.27-3.69,2.87-2.39,5.77-4.74,8.78-7.21a24.8,24.8,0,0,1,.22,4.47c-3.94,2.8-7.55,6-11.31,8.95-.36.29-1.06.52-.57,1.24a16.72,16.72,0,0,0,3.24,4.15c.41.55.85.54,1.35.1s.76-.62,1.15-.93l7.47-6c.12,1.44.83,2,2,2a5.82,5.82,0,0,0,3.95-.95,1.59,1.59,0,0,0,.92-2.1c-.28-1.11-.48-2.24-.72-3.4l5-3.5c-.45,2.53-.85,4.72-1.25,6.89-.07.41-.44.86.19,1.15a13.21,13.21,0,0,0,5.52,1.28c.63.15.74-.27.85-.75a68.26,68.26,0,0,0,1.9-13.41,2.61,2.61,0,0,1,.85-2c2.89-2.62,5.65-5.4,8.32-8.26a47.75,47.75,0,0,0,5.09-6.5,4.13,4.13,0,0,1-1-.84c-2.56-3.55-5-1.51-5-1.51a47.59,47.59,0,0,0-4.21,4.18c-1.12,1.23-2.34,2.35-3.69,3.69-.16-2-.3-3.79-.44-5.54,2.75-2.34,2.75-2.34,1.65-4.95.56-.31,1.13-.63,2-1.21l11-11.38c-.69-1.36-1.44-2.71-2.22-4.19,1.79.06,3.4.07,5,.17A1.38,1.38,0,0,0,279.08,115Zm-44.87,13.88a35.35,35.35,0,0,0-2.91,6.77c-.17.46-.26,1-.75,1.23l-8.2,4.55c1.17-4,2.78-7.51,4.15-11.15,1.13-3,2.4-2.71,2.75-2.89a24.87,24.87,0,0,0,3.43-2.57s0,0,.07,0a1.81,1.81,0,0,1,1.23,0C234.78,126,235.23,127.24,234.21,128.85Zm-2,23.58-.19-.12c1.46-3.4,2.88-6.81,4.41-10.18.41-.92,1.57-.92,2.43-1.51a38.82,38.82,0,0,1,1,5.6Zm20.73-2.16a65.77,65.77,0,0,1-5.43,4.28,24.76,24.76,0,0,1-.27-4.55,1,1,0,0,1,.32-.83c1.88-1.85,3.74-3.71,5.61-5.56l.51.2c-.06,1.82-.13,3.64-.18,5.46A1.28,1.28,0,0,1,252.91,150.27Zm-3.52-20.68c-.71.52-1.3,1-1.24,1.17h0c.75,1.83,1.51,3.65,2.26,5.48-1.19,1.57-2.75,2.78-4.13,4.31-.54-.85-.42-1.74-.77-2.59l1.94-.83a21.56,21.56,0,0,0-2.24-6.4l-3.43-2.91c-.25-.15-.75-3.74-.95-4.16-.06-.92,21.39-3,22.48-2.42C263.11,123,253.6,127.68,249.39,129.59Z"/><path class="cls-7" d="M236.45,111.22l3.78,3.43,28.45-6.79c-.5-1-1.29,0-2.05-.32l-1-1.38a45.56,45.56,0,0,0-6.83-7.77c-1.58-1.32-3.33-2.42-5.55-2.28-.1-.31-.61-.13-.66-.52a6.9,6.9,0,0,0,2.23-3.46,1.94,1.94,0,0,0-.85-2.42c-3-1.82-5.86-3.68-8.78-5.54-.43-.27-.83-.55-1.35-.2-2.14.83-3,2.57-3.37,4.69-.27,1,.41,1.38,1.06,1.8l5.66,3.61-10,7c-2.69-3-5.3-5.8-7.87-8.68-.52-.58-1-.89-1.72-.43a15.34,15.34,0,0,0-4.18,3.77,1,1,0,0,0,.14,1.42c1,1,1.9,2,2.81,3.1a67.66,67.66,0,0,1,4.74,5.33c-1.57,1.21-3.07,2.35-4.55,3.5-.41.32-1,.59-.34,1.22a17.52,17.52,0,0,0,3.63,4.82c.34.57,1,1,1,1.74l7-1.66A27.57,27.57,0,0,1,236.45,111.22ZM251.16,103c3.55.08,5.13,3.16,7.15,5.79a134.54,134.54,0,0,1-13.88-.34l-1-.89C245.51,105.05,247.89,102.92,251.16,103Z"/><path class="cls-8" d="M230.79,126.7a63.57,63.57,0,0,1-17.53,7.08,6.88,6.88,0,0,1-1,.09c-.42-1.59-.83-3.13-1.26-4.72,2.09-.64,4.1-1.24,6.1-1.86a62,62,0,0,0,11.52-5.17,3.22,3.22,0,0,0,1-.81c.63-1,4.15-3.59,5.39-3.43,2.21.17,7.11.14,10.42-1.38,2.56-1.18,5.24-2.12,7.91-3,5.32-1.82,10.68-3.55,16-5.32.36.09.49.39.65.68a12.93,12.93,0,0,1,1.38,3.88c.06.82-.13,1.25-.88,1.5-3.32,1.08-6.73,1.91-10,3a137.11,137.11,0,0,1-16.39,4.4c-1.91.39-4.87.76-7,1C235.52,122.86,231.36,126.37,230.79,126.7Z"/><path class="cls-8" d="M271.4,135.43c.74.82,1.89,1.17,2.57,2.15a35.69,35.69,0,0,1-4.54,5.83,157.06,157.06,0,0,1-13.68,13c-5.17,4.16-10.9,7.54-16,11.79-2.41,2-4.84,4-7.27,6a17.11,17.11,0,0,1-3.23-4.15c6.11-4.91,12.18-9.86,18.72-14.21a62.79,62.79,0,0,0,7-5.59c2.56-2.28,5-4.68,7.41-7.07a65.73,65.73,0,0,0,5.09-5.73c.43-.54,2.68-2.51,3.89-2"/><path class="cls-8" d="M241.14,88.93c.35-2.12,1.23-3.86,3.38-4.69.73,1.15,2,1.52,3.08,2.22,1.9,1.29,3.87,2.49,5.89,3.78a10.11,10.11,0,0,0-2.51,3.5c.57.85,1.1,1.67,1.67,2.47.35.49.76.83,1.28.17h0c.63,1.07,1.89.87,2.8,1.4,2.8,1.6,6.72,6.91,8.72,9.55-1.53.8-3.63,0-5.05,1-2-2.39-4.47-6.63-8.37-7l2.77-2.09c-.09-.54-.28-.86-.65-1-4.3,2.94-8.62,5.73-12.74,8.81-3.65,2.73-7.41,5.33-10.88,8.3a17.86,17.86,0,0,1-3.64-4.82c1.22-1.14,2.59-2.08,3.9-3.09,6.14-4.73,12.48-9.19,18.88-13.57.37-.26.89-.42.77-1.07-.54-.16-.78.24-1.1.44s-.79.51-1.24.2C245.83,91.92,243.31,90.69,241.14,88.93Z"/><path class="cls-8" d="M222,165c.54-3.57,3.57-5.06,6-7.08s4.81-4,7.24-6c4-3.28,8.07-6.54,11.93-10,.6-.54,1.18-1.11,1.74-1.7a18.14,18.14,0,0,1,2.92-2.1c2.65-1.9,5.71-2.88,8.63-4.3l1.42,1.44a8.31,8.31,0,0,1-2.23,1.94c-3.11,2.47-5.72,5.46-8.56,8.21-3.13,3-6.53,5.72-9.94,8.42-3.22,2.56-6.35,5.23-9.53,7.85q-1.81,1.5-3.66,2.95a6.07,6.07,0,0,0-1.77,2.16A4.55,4.55,0,0,1,222,165Z"/><path class="cls-8" d="M209.57,150c4-1.91,7.65-4.3,11.48-6.44,6.37-3.58,12.6-7.43,19.29-10.42,1.06-.47,2.16-.87,3.26-1.26a4.29,4.29,0,0,0,1.6-.94h0a43.36,43.36,0,0,1,2.24,5.75l-8,3.37c-5,2.14-9.68,5.08-14.51,7.64-4.16,2.19-8.06,4.85-12.28,6.93-.34.17-.61.39-1,.13C210.27,153.48,209.26,152,209.57,150Z"/><path class="cls-8" d="M248.86,131a28,28,0,0,1,5.75-2.58c4.46-1.77,16.53-11.1,17.43-11.41.18-.89,2.84,2.09,2.47,2.79-1.35,2.51-7.74,8.69-10.1,10.24a69.27,69.27,0,0,1-13.28,6.44Z"/><path class="cls-8" d="M249.47,113.49a21.42,21.42,0,0,1-3.51,1.33,4.61,4.61,0,0,1-6-1.51,22.67,22.67,0,0,0-1.88-1.92,32.35,32.35,0,0,1,4.58-3.53A75.17,75.17,0,0,0,249.47,113.49Z"/><path class="cls-8" d="M224.43,96.82a24.55,24.55,0,0,0,4.19-3.51c2.32,3.35,5.55,5.61,7.83,8.93a33.6,33.6,0,0,1-4,3.15C229.92,102.34,227.09,99.76,224.43,96.82Z"/></g><g id="Element-5" data-name="Element"><path class="cls-9" d="M219.93,33.19a8.64,8.64,0,0,0-3.42-3.85,1.36,1.36,0,0,0-1.81.17,78.09,78.09,0,0,0-6.17,6.17,1.1,1.1,0,0,0-.94,0l-15,25.12,1.33-.08-1.8,2.63-.85-.34-3.67,6.14a40.65,40.65,0,0,1,1.69,4.2,3.34,3.34,0,0,1-.16,1.33l-1,1a4.65,4.65,0,0,0-2.19.52c-1.11.13-.41.89-.29,1.18,1,2.38.58,4.54-.52,6.8-1.33,2.74-2.76,5.43-4.24,8.14a16.17,16.17,0,0,0,6.22,3.65c1-1.83,2.05-3.61,3.15-5.53,1.69,3.14,3.16,6.22,5,9.07a6.16,6.16,0,0,1,.66,6c-.26.66-.81,1.48-.14,2.27h0c1.23,1.63,3,1.92,4.84,1.86,1.81,3.39,3.77,6.69,5.81,9.95.23.38.35,1,1,.83a5.44,5.44,0,0,0,4.88-2.67c.67-.74.11-1.33-.25-1.92-2.65-4.38-5.17-8.83-7.48-13.39a1.9,1.9,0,0,1-.29-1.41c.64-2.43,1.26-4.86,1.92-7.44a17.67,17.67,0,0,1,2.2,4,47.68,47.68,0,0,0,3.89,8.75c.67,1.16,1.1,2.75,2.84,3a4.54,4.54,0,0,0,4.15-1.73,2.53,2.53,0,0,0,.83-1.62c.09-1.88.19-3.76.34-5.63.3-3.73.64-7.46,1-11.33a25.3,25.3,0,0,1,3.35,3c-.76,4.78-1,9.58-1.5,14.35-.05.47-.37,1.12.49,1.28a17.09,17.09,0,0,0,5.23.58c.68.08,1-.24,1-.91,0-.49.09-1,.14-1.47.3-3.09.59-6.18.92-9.54a1.85,1.85,0,0,0,2.86-.06,5.92,5.92,0,0,0,2.07-3.49,1.61,1.61,0,0,0-.85-2.13c-1-.57-1.95-1.23-2.94-1.86l1-6,4.06,5.71c.24.34.3.92,1,.67A13.14,13.14,0,0,0,243,86c.55-.35.33-.72.06-1.13a68.69,68.69,0,0,0-8.26-10.73,2.54,2.54,0,0,1-.85-2c.14-3.91.09-7.83-.1-11.73a47.58,47.58,0,0,0-1.09-8.19,3.92,3.92,0,0,1-1.32.15c-4.33-.64-4.6,2.55-4.6,2.55a48.46,48.46,0,0,0,0,5.94c.1,1.65.05,3.32.07,5.22l-4.27-3.55C223,59,223,59,220.33,57.93c.17-.62.34-1.25.56-2.31l-.44-15.85c-1.46-.45-2.95-.86-4.55-1.33,1.29-1.25,2.43-2.39,3.62-3.47A1.39,1.39,0,0,0,219.93,33.19ZM198.54,75a34.51,34.51,0,0,0,2.81,6.82,2,2,0,0,1,.36,1.39l-2.48,9.06c-2-3.64-3.43-7.24-5.07-10.76-1.36-2.91-.27-3.61-.15-4a23.85,23.85,0,0,0,.55-4.25s0,0,0-.06c0-.25.71-.93.83-.91C196.93,72.66,198.1,73.18,198.54,75ZM214,93l-.22,0c-1.41-3.42-2.87-6.82-4.21-10.27-.37-.93.45-1.77.62-2.79a37.44,37.44,0,0,1,4.73,3.16C214.6,86.37,214.3,89.66,214,93Zm12.92-16.37a65.76,65.76,0,0,1-.73,6.88,24.25,24.25,0,0,1-3.44-3,1,1,0,0,1-.38-.81c0-2.64,0-5.27-.06-7.9l.5-.23c1.26,1.32,2.52,2.64,3.79,3.94A1.3,1.3,0,0,1,226.91,76.58ZM209.66,64.67a3.52,3.52,0,0,0,0,1.71h0l5.5,2.2c.29,2,.07,3.91.2,6-1-.21-1.54-.91-2.39-1.26l.76-2a21.6,21.6,0,0,0-6.14-2.86l-4.48.43c-.27.07-3.19-2.08-3.64-2.22-.69-.6,12.81-17.41,14-17.81C214.53,50.24,211.23,60.31,209.66,64.67Z"/><path class="cls-9" d="M187.48,61.12l5.1-.32,15-25.12c-1.1-.38-.89.93-1.66,1.24l-1.72-.22a45.26,45.26,0,0,0-10.33-.52c-2,.21-4,.69-5.5,2.38-.3-.14-.51.35-.83.11a7,7,0,0,0-.92-4,1.94,1.94,0,0,0-2.33-1.07c-3.35.84-6.72,1.63-10.08,2.43-.5.11-1,.2-1.09.82-.91,2.11-.28,4,1,5.69.5.87,1.27.67,2,.5l6.54-1.54c-.68,4.19-1.31,8.11-2,12.09-4-.14-7.84-.26-11.69-.42-.78,0-1.34.09-1.51.93a15.24,15.24,0,0,0-.22,5.63c.11.66.48.88,1.12.89,1.39,0,2.78.07,4.16.15a68.77,68.77,0,0,1,7.13.32c-.23,2-.46,3.84-.67,5.71-.06.52-.31,1.16.63,1.1a17.85,17.85,0,0,0,6,.76c.64.15,1.37,0,1.92.51L191.26,63A30.23,30.23,0,0,1,187.48,61.12Zm4.39-16.29c2.53-2.49,5.84-1.46,9.14-1.08a132.45,132.45,0,0,1-9.95,9.71l-1.32.09C189.4,50.32,189.53,47.13,191.87,44.83Z"/><path class="cls-10" d="M194.61,76a64.1,64.1,0,0,1-7.17,17.5,7.41,7.41,0,0,1-.64.78l-4.26-2.38c1-2,2-3.81,2.92-5.67a62,62,0,0,0,4.35-11.86A3.36,3.36,0,0,0,190,73c-.27-1.14.32-5.48,1.31-6.26,1.66-1.46,5.06-5,6.28-8.42a82.46,82.46,0,0,1,3.35-7.8c2.41-5.09,4.91-10.13,7.37-15.2a1.13,1.13,0,0,1,.95,0A13.34,13.34,0,0,1,213,37.08c.63.53.8,1,.45,1.67-1.54,3.14-3.32,6.17-4.83,9.33a137.85,137.85,0,0,1-8.3,14.82c-1,1.64-2.85,4-4.14,5.71C195.16,69.91,194.77,75.35,194.61,76Z"/><path class="cls-10" d="M229.2,53c1.11,0,2.16-.54,3.34-.34a36.1,36.1,0,0,1,1,7.32,158.63,158.63,0,0,1-.25,18.88c-.63,6.61-2.22,13.08-2.74,19.7-.25,3.13-.53,6.25-.8,9.38a16.76,16.76,0,0,1-5.23-.59c.75-7.8,1.45-15.61,2.91-23.33a63.57,63.57,0,0,0,.91-8.95c.15-3.42.13-6.83.12-10.25a65.1,65.1,0,0,0-.55-7.64c-.09-.69.08-3.68,1.29-4.18"/><path class="cls-10" d="M174.82,42.2c-1.27-1.73-1.9-3.58-1-5.69,1.33.27,2.51-.41,3.74-.66,2.25-.46,4.48-1,6.82-1.59a10,10,0,0,0,.75,4.24c1,.18,2,.38,2.94.53.58.09,1.11,0,1-.79h0c1.2.3,1.94-.75,3-1,3.1-.88,9.64,0,12.93.43-.5,1.65-2.51,2.62-2.8,4.33-3.12-.2-7.86-1.42-10.83,1.13l.43-3.45c-.45-.31-.81-.4-1.14-.19-.89,5.12-1.91,10.17-2.58,15.27-.6,4.53-1.36,9-1.67,13.59a17.56,17.56,0,0,1-6-.75c0-1.67.32-3.3.51-5,.9-7.71,2.15-15.36,3.47-23,.08-.45.32-.93-.22-1.3-.49.27-.38.72-.45,1.09s-.19.92-.73,1C180.23,40.93,177.59,41.87,174.82,42.2Z"/><path class="cls-10" d="M215.87,109.05c-2.17-2.88-1.13-6.09-.91-9.21s.48-6.25.76-9.37c.46-5.18.95-10.36,1.16-15.55q0-1.22,0-2.43a19.47,19.47,0,0,1,.53-3.57c.5-3.22,1.93-6.1,3-9.18l2,0a8.09,8.09,0,0,1-.17,3c-.4,4-.08,7.91-.1,11.86a128.24,128.24,0,0,1-.91,13c-.42,4.1-.69,8.21-1,12.32-.13,1.56-.28,3.12-.44,4.68a6,6,0,0,0,.31,2.78A4.55,4.55,0,0,1,215.87,109.05Z"/><path class="cls-10" d="M196.48,107.47c1.4-4.17,2.26-8.49,3.4-12.72,1.9-7.07,3.49-14.22,6-21.1.4-1.09.89-2.16,1.38-3.22a4.27,4.27,0,0,0,.43-1.8h0a44,44,0,0,1,5.68,2.41c-1.1,2.79-2.15,5.45-3.19,8.11-2,5.11-3.13,10.48-4.67,15.73-1.33,4.52-2.15,9.17-3.61,13.65-.12.35-.15.7-.59.78C199.44,109.39,197.7,109.1,196.48,107.47Z"/><path class="cls-10" d="M210.33,66.05a27.61,27.61,0,0,1,2.16-5.92c1.85-4.42,3.6-19.59,4-20.46-.51-.75,3.47-.58,3.71.18.86,2.72.82,11.62.28,14.39a69.53,69.53,0,0,1-4.67,14Z"/><path class="cls-10" d="M198.2,53.37a22.2,22.2,0,0,1-1.49,3.45,4.64,4.64,0,0,1-5.3,3.26,24,24,0,0,0-2.68,0,31.81,31.81,0,0,1,.67-5.74A74.94,74.94,0,0,0,198.2,53.37Z"/><path class="cls-10" d="M168.79,59.69a24.15,24.15,0,0,0,.42-5.46c4,.68,7.89-.06,11.86.62a33.78,33.78,0,0,1-.58,5.1C176.58,59.6,172.76,59.83,168.79,59.69Z"/></g><g id="Element-6" data-name="Element"><path class="cls-11" d="M121,17.12a8.57,8.57,0,0,0-5.13-.29,1.34,1.34,0,0,0-1.15,1.4,77,77,0,0,0,0,8.73c-.28.16-.58.3-.67.67L121.22,56l.88-1c.22,1.18.4,2.11.59,3.13l-.83.36,1.76,6.94a40.24,40.24,0,0,1,4.16,1.76,3.28,3.28,0,0,1,.83,1V69.6a4.56,4.56,0,0,0-1.18,1.92c-.69.88.33.92.63,1,2.41,1,3.62,2.78,4.45,5.16,1,2.88,1.9,5.79,2.77,8.75a16.12,16.12,0,0,0,7-1.84c-.56-2-1.11-4-1.7-6.13,3.41,1,6.63,2.14,9.93,2.87a6.13,6.13,0,0,1,4.75,3.8c.28.65.48,1.61,1.51,1.69h0c2,.28,3.45-.75,4.73-2.12,3.68,1.11,7.4,2.05,11.15,2.9.43.1,1,.46,1.31-.16a5.41,5.41,0,0,0,1.56-5.34c-.06-1-.87-1-1.54-1.18-5-1.21-9.9-2.55-14.76-4.14A1.88,1.88,0,0,1,158,76c-1.27-2.17-2.56-4.32-3.92-6.61a17.25,17.25,0,0,1,4.4,1.28,47.09,47.09,0,0,0,8.95,3.41c1.29.34,2.72,1.16,4.12.09a4.53,4.53,0,0,0,1.7-4.16,2.53,2.53,0,0,0-.56-1.74c-1.27-1.38-2.53-2.78-3.75-4.21-2.43-2.84-4.83-5.71-7.33-8.68a24.9,24.9,0,0,1,4.45-.29c2.86,3.91,6.09,7.46,9.12,11.18.29.37.53,1.06,1.25.55a16.66,16.66,0,0,0,4.09-3.3.8.8,0,0,0,.08-1.35c-.34-.36-.63-.76-1-1.13l-6.11-7.39c1.44-.14,2-.86,2-2.07a5.83,5.83,0,0,0-1-3.93,1.61,1.61,0,0,0-2.12-.9c-1.1.31-2.23.52-3.39.78l-3.57-5,6.91,1.15c.41.07.86.43,1.14-.2A13.28,13.28,0,0,0,174.68,38c.14-.63-.28-.74-.76-.84a68.94,68.94,0,0,0-13.42-1.7,2.55,2.55,0,0,1-2-.81c-2.67-2.86-5.48-5.58-8.38-8.2a47,47,0,0,0-6.57-5,4.09,4.09,0,0,1-.82,1c-3.51,2.62-1.44,5.06-1.44,5.06a48.3,48.3,0,0,0,4.24,4.16c1.24,1.09,2.38,2.3,3.74,3.63l-5.52.52c-2.38-2.72-2.38-2.72-5-1.57-.32-.55-.64-1.12-1.24-2L126,21.39c-1.36.71-2.7,1.48-4.16,2.28,0-1.79,0-3.4.1-5A1.36,1.36,0,0,0,121,17.12ZM135.5,61.8a34.77,34.77,0,0,0,6.81,2.82c.46.16,1,.24,1.24.73l4.67,8.14c-4-1.11-7.55-2.67-11.2-4-3-1.08-2.74-2.36-2.93-2.71a24.82,24.82,0,0,0-2.62-3.39s0,0,0-.07a1.91,1.91,0,0,1-.05-1.22C132.69,61.28,133.88,60.81,135.5,61.8Zm23.59,1.68-.12.19c-3.42-1.41-6.85-2.78-10.24-4.25-.92-.4-.94-1.57-1.54-2.42a37.38,37.38,0,0,1,5.57-1.12Q155.93,59.66,159.09,63.48Zm-2.48-20.71A65.34,65.34,0,0,1,161,48.13a24.93,24.93,0,0,1-4.54.35,1,1,0,0,1-.84-.31c-1.87-1.86-3.76-3.69-5.64-5.53l.2-.52c1.82,0,3.63.08,5.45.1A1.24,1.24,0,0,1,156.61,42.77ZM136,46.6c.52.71,1.06,1.29,1.19,1.23h0l5.43-2.35c1.59,1.17,2.82,2.72,4.38,4.07-.85.55-1.74.44-2.58.81-.28-.63-.55-1.22-.86-1.93a21.51,21.51,0,0,0-6.36,2.34l-2.85,3.48c-.15.25-3.73.8-4.14,1-.92.06-3.29-21.37-2.77-22.47C129.22,33,134,42.41,136,46.6Z"/><path class="cls-11" d="M117.86,59.84,121.22,56,114,27.63c-1,.51,0,1.29-.29,2.05l-1.36,1.07a45.59,45.59,0,0,0-7.66,7c-1.29,1.6-2.37,3.36-2.19,5.58-.31.11-.12.61-.51.67a6.86,6.86,0,0,0-3.49-2.18,2,2,0,0,0-2.41.89c-1.76,3-3.58,5.92-5.39,8.87-.26.43-.54.85-.19,1.36.87,2.13,2.62,3,4.74,3.3,1,.26,1.38-.43,1.78-1.09,1.15-1.84,2.28-3.7,3.52-5.72l7.18,9.91c-2.91,2.74-5.71,5.39-8.54,8-.58.53-.88,1-.4,1.73a15.18,15.18,0,0,0,3.83,4.12,1,1,0,0,0,1.42-.16c1-1,2-1.93,3-2.85a69.34,69.34,0,0,1,5.25-4.84l3.57,4.51c.33.4.61,1,1.23.32a17.67,17.67,0,0,0,4.76-3.71c.56-.35,1-1,1.72-1l-1.76-6.94A30.15,30.15,0,0,1,117.86,59.84Zm-8.45-14.6c0-3.55,3.08-5.18,5.68-7.25A134.73,134.73,0,0,1,115,51.9c-.08.08-.43.48-.88,1C111.55,50.86,109.39,48.52,109.41,45.24Z"/><path class="cls-12" d="M133.41,65.27a64.16,64.16,0,0,1,7.34,17.43,6.75,6.75,0,0,1,.1,1l-4.69,1.34c-.67-2.09-1.3-4.09-2-6.08a61.41,61.41,0,0,0-5.33-11.45,3.28,3.28,0,0,0-.83-1c-1-.6-3.65-4.09-3.51-5.33.14-2.22,0-7.13-1.54-10.41-1.22-2.55-2.19-5.21-3.15-7.87-1.91-5.3-3.72-10.64-5.56-16,.08-.36.38-.5.67-.66a13.18,13.18,0,0,1,3.86-1.44c.81-.07,1.25.11,1.5.86,1.13,3.31,2,6.7,3.19,10A138.82,138.82,0,0,1,128.15,52c.42,1.9.83,4.86,1.12,7C129.49,60.59,133.07,64.7,133.41,65.27Z"/><path class="cls-12" d="M141.5,24.49c.81-.76,1.14-1.91,2.11-2.61a36.2,36.2,0,0,1,5.9,4.45A158.45,158.45,0,0,1,162.7,39.82c4.24,5.11,7.7,10.8,12,15.84,2,2.38,4.05,4.79,6.08,7.18a16.9,16.9,0,0,1-4.1,3.3c-5-6-10-12-14.48-18.51a64.11,64.11,0,0,0-5.69-7c-2.32-2.52-4.75-4.91-7.18-7.31a64.19,64.19,0,0,0-5.8-5c-.54-.42-2.54-2.65-2.05-3.86"/><path class="cls-12" d="M95.52,55.48c-2.12-.32-3.87-1.17-4.73-3.3,1.13-.76,1.48-2.07,2.17-3.12,1.26-1.93,2.42-3.91,3.68-6a10.18,10.18,0,0,0,3.54,2.46c.83-.58,1.65-1.13,2.44-1.71.48-.35.81-.77.15-1.28h0c1.06-.64.84-1.9,1.35-2.82,1.56-2.82,6.8-6.83,9.41-8.87.82,1.52.09,3.63,1.1,5-2.35,2.07-6.55,4.57-6.84,8.48l-2.14-2.74c-.53.1-.85.29-.94.67,3,4.26,5.85,8.53,9,12.61,2.79,3.62,5.44,7.33,8.46,10.77a17.52,17.52,0,0,1-4.76,3.71c-1.15-1.2-2.11-2.55-3.14-3.85-4.82-6.08-9.37-12.36-13.84-18.69-.27-.37-.44-.88-1.08-.76-.16.54.25.78.46,1.1s.52.78.21,1.23C98.43,50.75,97.25,53.28,95.52,55.48Z"/><path class="cls-12" d="M171.82,73.49c-3.58-.48-5.11-3.49-7.16-5.84s-4.09-4.75-6.11-7.15c-3.34-4-6.66-8-10.19-11.79-.55-.59-1.13-1.16-1.72-1.71a18.93,18.93,0,0,1-2.15-2.9c-1.94-2.62-3-5.67-4.42-8.57l1.41-1.44a8.17,8.17,0,0,1,2,2.2c2.52,3.08,5.54,5.64,8.33,8.44a129,129,0,0,1,8.57,9.82c2.6,3.19,5.32,6.28,8,9.42q1.51,1.8,3,3.61a5.93,5.93,0,0,0,2.19,1.75A4.57,4.57,0,0,1,171.82,73.49Z"/><path class="cls-12" d="M157,86.14c-2-3.93-4.41-7.59-6.61-11.38-3.66-6.33-7.6-12.5-10.69-19.15-.5-1.06-.9-2.16-1.31-3.25a4.35,4.35,0,0,0-1-1.58h0a44.59,44.59,0,0,1,5.71-2.32l3.49,8c2.22,5,5.22,9.61,7.85,14.41,2.26,4.13,5,8,7.12,12.19.17.33.4.6.14,1C160.47,85.39,159,86.42,157,86.14Z"/><path class="cls-12" d="M137.46,47.11a27.57,27.57,0,0,1-2.67-5.72C133,37,123.45,25,123.13,24.12c-.9-.17,2-2.87,2.74-2.5,2.54,1.3,8.81,7.6,10.39,9.94a70,70,0,0,1,6.64,13.2Z"/><path class="cls-12" d="M119.92,46.77a20.91,20.91,0,0,1,1.39,3.49,4.63,4.63,0,0,1-1.42,6.06A22.73,22.73,0,0,0,118,58.23a32.37,32.37,0,0,1-3.59-4.53A75.54,75.54,0,0,0,119.92,46.77Z"/><path class="cls-12" d="M103.66,72.09A24.33,24.33,0,0,0,100.09,68c3.31-2.37,5.52-5.65,8.8-8a32.53,32.53,0,0,1,3.2,4C109.08,66.5,106.55,69.38,103.66,72.09Z"/></g><g id="Element-7" data-name="Element"><path class="cls-13" d="M40.1,76a8.67,8.67,0,0,0-3.88,3.38,1.35,1.35,0,0,0,.16,1.81,73.31,73.31,0,0,0,6.1,6.24,1.11,1.11,0,0,0,0,.94l24.95,15.28c0-.43,0-.87-.07-1.32l2.6,1.82c-.11.29-.23.56-.35.84l6.11,3.74a38.24,38.24,0,0,1,4.21-1.64,3.29,3.29,0,0,1,1.32.17l1,1a4.67,4.67,0,0,0,.5,2.2c.12,1.11.88.42,1.17.3,2.39-1,4.54-.54,6.8.59,2.72,1.36,5.39,2.82,8.08,4.32a16.1,16.1,0,0,0,3.71-6.19c-1.82-1-3.58-2.08-5.49-3.2,3.15-1.66,6.24-3.1,9.12-4.88a6.08,6.08,0,0,1,6-.6c.66.27,1.47.82,2.27.16h0c1.64-1.21,1.94-3,1.9-4.82,3.41-1.78,6.73-3.71,10-5.72.38-.23,1-.33.83-1a5.43,5.43,0,0,0-2.62-4.91c-.73-.68-1.32-.12-1.92.23-4.4,2.6-8.87,5.08-13.45,7.35a1.87,1.87,0,0,1-1.4.27l-7.42-2a17.47,17.47,0,0,1,4-2.16,47,47,0,0,0,8.79-3.81c1.16-.66,2.75-1.07,3-2.81a4.55,4.55,0,0,0-1.68-4.17,2.53,2.53,0,0,0-1.61-.85c-1.88-.11-3.76-.22-5.63-.4-3.72-.34-7.43-.72-11.3-1.09a25.16,25.16,0,0,1,3-3.32c4.77.8,9.56,1.09,14.32,1.64.47.05,1.12.38,1.28-.48a16.79,16.79,0,0,0,.63-5.23c.09-.68-.22-1-.89-1-.49,0-1-.1-1.46-.15l-9.53-1a1.85,1.85,0,0,0,0-2.86,5.86,5.86,0,0,0-3.46-2.11,1.6,1.6,0,0,0-2.14.83c-.58,1-1.25,1.94-1.89,2.92l-6-1.06,5.75-4c.34-.24.92-.3.68-1a13.12,13.12,0,0,0-3-4.8c-.34-.55-.71-.34-1.13-.07a69.73,69.73,0,0,0-10.8,8.16,2.55,2.55,0,0,1-2,.83c-3.9-.18-7.81-.17-11.72,0a47.59,47.59,0,0,0-8.19,1,3.94,3.94,0,0,1,.14,1.32c-.69,4.33,2.5,4.63,2.5,4.63a48.92,48.92,0,0,0,5.93,0c1.66-.08,3.32,0,5.22,0l-3.59,4.23c-3.6-.28-3.6-.28-4.66,2.35-.61-.18-1.24-.35-2.3-.58l-15.83.27c-.48,1.46-.9,3-1.39,4.54-1.23-1.3-2.36-2.45-3.43-3.66A1.37,1.37,0,0,0,40.1,76ZM81.68,97.85a34.7,34.7,0,0,0,6.84-2.75,1.91,1.91,0,0,1,1.39-.34l9,2.57c-3.65,2-7.26,3.36-10.8,5-2.91,1.32-3.6.23-4,.11a23.94,23.94,0,0,0-4.24-.6s0,0-.06,0c-.25,0-.92-.72-.9-.84C79.3,99.44,79.83,98.27,81.68,97.85ZM99.74,82.56l.05.23c-3.43,1.37-6.85,2.79-10.3,4.1-.94.36-1.76-.46-2.79-.65a38.54,38.54,0,0,1,3.21-4.7ZM83.52,69.46a66.53,66.53,0,0,1,6.87.8,24.88,24.88,0,0,1-3,3.42,1,1,0,0,1-.81.36c-2.63,0-5.27,0-7.9,0l-.22-.5,4-3.74A1.27,1.27,0,0,1,83.52,69.46ZM71.44,86.61c.87.13,1.66.18,1.71,0h0q1.13-2.73,2.26-5.48c2-.27,3.91,0,6-.14-.22,1-.93,1.53-1.28,2.38l-2-.77a21.48,21.48,0,0,0-2.92,6.11l.39,4.49c.06.27-2.12,3.17-2.26,3.61-.61.69-17.26-13-17.65-14.15C57.08,81.59,67.11,85,71.44,86.61Z"/><path class="cls-13" d="M67.67,108.77c-.09-1.81-.17-3.42-.26-5.11L42.46,88.39c-.38,1.09.92.9,1.22,1.67-.06.48-.14,1.09-.23,1.71a46,46,0,0,0-.63,10.34c.19,2,.65,4.07,2.32,5.53-.14.3.35.52.11.83a6.93,6.93,0,0,0-4,.89,1.94,1.94,0,0,0-1.11,2.32c.81,3.36,1.56,6.74,2.33,10.11.11.5.2,1,.81,1.1,2.1.93,4,.32,5.7-.94.87-.5.68-1.27.51-2-.47-2.13-.95-4.24-1.47-6.56l12.06,2.08c-.18,4-.33,7.85-.54,11.7,0,.78.08,1.34.92,1.52a15.18,15.18,0,0,0,5.62.28c.66-.1.88-.47.9-1.11,0-1.39.1-2.78.19-4.17a68.88,68.88,0,0,1,.39-7.13l5.7.73c.51.07,1.16.32,1.11-.62a17.88,17.88,0,0,0,.81-6c.17-.64,0-1.37.54-1.92L69.59,105A28,28,0,0,1,67.67,108.77Zm-16.22-4.55c-2.46-2.57-1.41-5.87-1-9.16a134.69,134.69,0,0,1,9.61,10c0,.11,0,.64.07,1.32C56.9,106.74,53.72,106.58,51.45,104.22Z"/><path class="cls-14" d="M82.6,101.79A63.88,63.88,0,0,1,100,109.14a5.94,5.94,0,0,1,.77.66c-.81,1.42-1.6,2.8-2.43,4.23-1.93-1-3.77-2-5.63-3a61.39,61.39,0,0,0-11.8-4.48,3.53,3.53,0,0,0-1.33-.17c-1.13.26-5.47-.38-6.23-1.37-1.44-1.68-4.94-5.12-8.36-6.37-2.65-1-5.21-2.2-7.75-3.44-5.06-2.46-10.07-5-15.11-7.53a1.13,1.13,0,0,1,0-1A13,13,0,0,1,43.92,83c.54-.62,1-.79,1.67-.44,3.12,1.59,6.13,3.4,9.27,4.94A137.39,137.39,0,0,1,69.58,96c1.63,1.07,4,2.9,5.67,4.21C76.53,101.17,82,101.62,82.6,101.79Z"/><path class="cls-14" d="M60,66.93c0-1.11-.52-2.16-.31-3.34A35.29,35.29,0,0,1,67,62.66a158.19,158.19,0,0,1,18.85.44c6.6.7,13,2.36,19.65,2.94,3.12.28,6.24.6,9.36.9a17.09,17.09,0,0,1-.63,5.23c-7.79-.83-15.58-1.61-23.28-3.15A63.37,63.37,0,0,0,82,68c-3.41-.18-6.82-.19-10.23-.21a63.22,63.22,0,0,0-7.65.47c-.68.07-3.66-.12-4.15-1.34"/><path class="cls-14" d="M48.64,121.25c-1.74,1.26-3.59,1.87-5.7.94.29-1.33-.37-2.51-.61-3.75-.44-2.26-1-4.49-1.53-6.83a10.09,10.09,0,0,0,4.25-.72c.2-1,.4-2,.56-2.93.1-.58,0-1.12-.78-1h0c.31-1.21-.72-2-1-3-.85-3.11.11-9.64.55-12.93,1.65.51,2.6,2.54,4.3,2.84-.23,3.13-1.5,7.85,1,10.86l-3.44-.47c-.32.44-.41.8-.21,1.14,5.12.94,10.14,2,15.23,2.74,4.52.64,9,1.45,13.57,1.8a17.89,17.89,0,0,1-.82,6c-1.66,0-3.29-.36-4.94-.57-7.69-1-15.32-2.3-22.94-3.71-.45-.08-.93-.33-1.3.21.26.5.72.39,1.09.47s.92.2,1,.74C47.43,115.83,48.34,118.47,48.64,121.25Z"/><path class="cls-14" d="M115.84,80.84c-2.9,2.15-6.1,1.08-9.2.82s-6.25-.54-9.37-.85c-5.16-.52-10.33-1.06-15.51-1.32q-1.22-.06-2.43,0a19.29,19.29,0,0,1-3.56-.57c-3.21-.52-6.07-2-9.14-3v-2a8.23,8.23,0,0,1,3,.2c4,.44,7.91.17,11.85.22,4.36.06,8.66.56,13,1.05,4.09.46,8.2.78,12.29,1.17,1.56.14,3.12.31,4.67.48a5.88,5.88,0,0,0,2.79-.27A4.57,4.57,0,0,1,115.84,80.84Z"/><path class="cls-14" d="M114.06,100.24c-4.15-1.45-8.45-2.35-12.67-3.54-7-2-14.16-3.63-21-6.23-1.09-.42-2.15-.92-3.2-1.42a4.32,4.32,0,0,0-1.8-.45h0A45.47,45.47,0,0,1,77.85,83l8.07,3.28c5.09,2,10.45,3.24,15.67,4.84,4.5,1.37,9.13,2.24,13.6,3.75.35.12.7.15.78.6C116,97.29,115.7,99,114.06,100.24Z"/><path class="cls-14" d="M72.83,86a27.35,27.35,0,0,1-5.89-2.22c-4.4-1.89-19.54-3.81-20.4-4.22-.76.5-.54-3.48.22-3.72,2.73-.83,11.61-.7,14.38-.13a70.38,70.38,0,0,1,14,4.81Z"/><path class="cls-14" d="M60,98a21,21,0,0,1,3.43,1.53,4.62,4.62,0,0,1,3.2,5.33,26.6,26.6,0,0,0,0,2.68,31.65,31.65,0,0,1-5.73-.73A74.71,74.71,0,0,0,60,98Z"/><path class="cls-14" d="M66.05,127.46A25.1,25.1,0,0,0,60.6,127c.72-4,0-7.9.74-11.86a32.58,32.58,0,0,1,5.09.63C66,119.67,66.23,123.49,66.05,127.46Z"/></g><g id="Element-8" data-name="Element"><path class="cls-15" d="M23.7,175.16a8.68,8.68,0,0,0-.33,5.14,1.34,1.34,0,0,0,1.38,1.16,74.8,74.8,0,0,0,8.73.06c.16.29.29.59.66.68l28.4-7-1-.88,3.13-.57c.13.28.24.56.35.84l7-1.7a37.61,37.61,0,0,1,1.8-4.15,3.39,3.39,0,0,1,1-.82H76.2a4.54,4.54,0,0,0,1.91,1.19c.86.7.92-.32,1-.62,1-2.4,2.82-3.6,5.2-4.41,2.88-1,5.8-1.84,8.76-2.69a16.16,16.16,0,0,0-1.77-7l-6.14,1.64c1-3.41,2.2-6.61,3-9.91A6.12,6.12,0,0,1,92,141.45c.64-.28,1.61-.46,1.7-1.5h0c.3-2-.72-3.46-2.08-4.75,1.14-3.67,2.11-7.39,3-11.13.11-.43.47-.95-.15-1.32a5.39,5.39,0,0,0-5.32-1.6c-1,0-1,.85-1.19,1.53-1.26,5-2.64,9.88-4.27,14.73a1.89,1.89,0,0,1-.79,1.19l-6.64,3.86a17.73,17.73,0,0,1,1.32-4.39,46.21,46.21,0,0,0,3.48-8.93c.36-1.28,1.19-2.7.14-4.11a4.53,4.53,0,0,0-4.14-1.75,2.57,2.57,0,0,0-1.74.55c-1.4,1.25-2.8,2.51-4.24,3.72-2.87,2.4-5.75,4.77-8.75,7.26a25.87,25.87,0,0,1-.24-4.47c3.93-2.82,7.51-6,11.25-9,.36-.29,1.06-.52.56-1.24a17,17,0,0,0-3.26-4.14.8.8,0,0,0-1.35-.08c-.36.33-.76.62-1.14.93-2.41,2-4.82,3.92-7.43,6.06-.13-1.44-.85-2-2-2a5.85,5.85,0,0,0-3.94,1,1.62,1.62,0,0,0-.92,2.11c.3,1.11.5,2.24.75,3.4l-5,3.53c.44-2.54.82-4.72,1.21-6.9.07-.41.44-.86-.2-1.15A13.18,13.18,0,0,0,45,121.57c-.63-.14-.74.27-.84.75a68.35,68.35,0,0,0-1.82,13.42,2.57,2.57,0,0,1-.83,2c-2.88,2.65-5.62,5.44-8.27,8.32a47.87,47.87,0,0,0-5.06,6.53,4.18,4.18,0,0,1,1,.83c2.58,3.54,5,1.49,5,1.49a48.74,48.74,0,0,0,4.19-4.21c1.1-1.23,2.32-2.36,3.67-3.71.17,2,.32,3.78.47,5.53-2.74,2.36-2.74,2.36-1.62,5-.56.31-1.13.64-2,1.23L28,170.16c.69,1.36,1.45,2.71,2.24,4.18-1.8-.05-3.4-.05-5-.14A1.37,1.37,0,0,0,23.7,175.16ZM68.47,161a34.54,34.54,0,0,0,2.88-6.79c.16-.46.25-1,.74-1.23l8.17-4.6c-1.15,4-2.73,7.53-4.08,11.17-1.12,3-2.38,2.73-2.74,2.91a24.7,24.7,0,0,0-3.41,2.6s0,0-.07,0a1.91,1.91,0,0,1-1.22,0C67.92,163.81,67.47,162.62,68.47,161Zm1.89-23.59.2.12c-1.44,3.41-2.85,6.83-4.35,10.21-.41.92-1.57.92-2.43,1.52a38.79,38.79,0,0,1-1.07-5.59ZM49.65,139.7a63.75,63.75,0,0,1,5.4-4.31,24.77,24.77,0,0,1,.3,4.55,1,1,0,0,1-.32.83c-1.87,1.85-3.72,3.73-5.57,5.59l-.51-.19c0-1.83.11-3.65.14-5.47A1.28,1.28,0,0,1,49.65,139.7Zm3.64,20.66c.71-.52,1.3-1.05,1.24-1.18h0l-2.3-5.46c1.19-1.59,2.74-2.8,4.1-4.35.55.86.44,1.74.79,2.59l-1.93.85a21.61,21.61,0,0,0,2.28,6.38l3.45,2.89c.24.14.76,3.74,1,4.15.06.92-21.37,3.1-22.46,2.57C39.62,167,49.09,162.3,53.29,160.36Z"/><path class="cls-15" d="M66.35,178.65l-3.81-3.41-28.4,7c.5,1.05,1.28,0,2,.31l1.05,1.37a44.78,44.78,0,0,0,6.88,7.73c1.59,1.31,3.34,2.41,5.56,2.25.11.31.61.12.66.51a7,7,0,0,0-2.21,3.48,2,2,0,0,0,.87,2.42c3,1.79,5.88,3.64,8.81,5.47.43.27.84.56,1.36.2,2.13-.84,3-2.58,3.34-4.71.26-1-.42-1.38-1.07-1.79l-5.69-3.57,10-7.11c2.71,3,5.33,5.77,7.92,8.63.52.58,1,.89,1.72.42a15.23,15.23,0,0,0,4.16-3.8,1,1,0,0,0-.15-1.42c-1-1-1.91-2-2.82-3.07a67.41,67.41,0,0,1-4.78-5.3l4.53-3.54c.41-.32,1-.59.34-1.22a17.92,17.92,0,0,0-3.67-4.8c-.34-.57-1-1-1-1.73l-7,1.7A28.73,28.73,0,0,1,66.35,178.65ZM51.69,187c-3.55-.06-5.15-3.13-7.19-5.75a134.61,134.61,0,0,1,13.89.26l1,.88C57.33,184.87,55,187,51.69,187Z"/><path class="cls-16" d="M71.91,163.13a63.85,63.85,0,0,1,17.48-7.19,7,7,0,0,1,1-.09c.44,1.58.86,3.12,1.3,4.71-2.09.65-4.09,1.26-6.09,1.9a62.3,62.3,0,0,0-11.49,5.23,3.51,3.51,0,0,0-1.05.82c-.62,1-4.12,3.62-5.36,3.47-2.21-.16-7.12-.1-10.41,1.44-2.56,1.2-5.23,2.15-7.89,3.09-5.32,1.86-10.66,3.62-16,5.42-.36-.08-.5-.39-.66-.67a13.15,13.15,0,0,1-1.4-3.88c-.07-.82.12-1.25.86-1.5,3.33-1.1,6.72-2,10-3.11a137,137,0,0,1,16.36-4.49c1.91-.41,4.87-.8,7-1.07C67.21,167,71.35,163.47,71.91,163.13Z"/><path class="cls-16" d="M31.25,154.66c-.75-.82-1.9-1.16-2.59-2.14a35.77,35.77,0,0,1,4.51-5.86,158.33,158.33,0,0,1,13.59-13.08c5.15-4.2,10.86-7.61,15.94-11.89,2.39-2,4.81-4,7.23-6a16.48,16.48,0,0,1,3.25,4.13c-6.07,4.94-12.11,9.93-18.63,14.32a63.85,63.85,0,0,0-7,5.64c-2.53,2.29-4.94,4.7-7.36,7.11a62.69,62.69,0,0,0-5,5.76c-.43.54-2.67,2.53-3.88,2"/><path class="cls-16" d="M61.79,201c-.33,2.13-1.21,3.87-3.34,4.71-.74-1.14-2.05-1.5-3.1-2.2-1.91-1.28-3.88-2.46-5.92-3.73a10.16,10.16,0,0,0,2.49-3.52c-.57-.85-1.11-1.67-1.68-2.47-.35-.48-.77-.82-1.28-.16h0c-.64-1.06-1.9-.86-2.81-1.38-2.81-1.58-6.76-6.87-8.78-9.5,1.52-.81,3.63-.06,5-1.05,2,2.37,4.51,6.6,8.41,6.93l-2.75,2.11c.09.54.28.86.66,1,4.28-3,8.58-5.79,12.68-8.89,3.64-2.76,7.38-5.38,10.83-8.37a17.72,17.72,0,0,1,3.67,4.8c-1.21,1.15-2.57,2.09-3.88,3.11-6.11,4.77-12.43,9.26-18.79,13.69-.38.26-.89.42-.77,1.07.54.16.78-.24,1.1-.45s.78-.51,1.23-.2C57.09,198,59.61,199.22,61.79,201Z"/><path class="cls-16" d="M80.48,124.76c-.52,3.57-3.53,5.08-5.9,7.11s-4.78,4-7.2,6c-4,3.31-8,6.59-11.87,10.1-.6.54-1.17,1.11-1.73,1.7a18.88,18.88,0,0,1-2.91,2.13c-2.63,1.91-5.69,2.91-8.6,4.34l-1.43-1.42a8.36,8.36,0,0,1,2.22-2c3.1-2.49,5.69-5.49,8.51-8.26a128.72,128.72,0,0,1,9.88-8.48c3.21-2.58,6.33-5.28,9.49-7.91q1.8-1.51,3.63-3A5.92,5.92,0,0,0,76.34,123,4.52,4.52,0,0,1,80.48,124.76Z"/><path class="cls-16" d="M93,139.69c-4,1.92-7.62,4.34-11.43,6.51-6.36,3.61-12.56,7.5-19.23,10.53-1.06.48-2.16.88-3.25,1.28a4.3,4.3,0,0,0-1.59,1h0a46.92,46.92,0,0,1-2.27-5.74l8-3.43c5-2.17,9.65-5.13,14.46-7.72,4.15-2.23,8-4.91,12.24-7,.34-.17.61-.4,1-.14C92.27,136.22,93.28,137.67,93,139.69Z"/><path class="cls-16" d="M53.81,158.91a27.71,27.71,0,0,1-5.73,2.62c-4.44,1.79-16.46,11.2-17.36,11.52-.18.89-2.85-2.07-2.48-2.78,1.33-2.52,7.68-8.74,10-10.3a69.37,69.37,0,0,1,13.25-6.52Z"/><path class="cls-16" d="M53.32,176.46a21.52,21.52,0,0,1,3.49-1.36,4.62,4.62,0,0,1,6,1.48,26.17,26.17,0,0,0,1.89,1.91A32.34,32.34,0,0,1,60.19,182,76.73,76.73,0,0,0,53.32,176.46Z"/><path class="cls-16" d="M78.46,193a24.66,24.66,0,0,0-4.17,3.53c-2.34-3.33-5.59-5.57-7.89-8.87a31.85,31.85,0,0,1,4-3.17C72.93,187.49,75.77,190.05,78.46,193Z"/></g></g></svg>