<svg xmlns="http://www.w3.org/2000/svg" viewBox="0 0 850.39 850.39"><defs><style>.cls-1{fill:#5f5f0d;}.cls-2{fill:#e3e320;}.cls-3{fill:#803d0e;}.cls-4{fill:#c8631c;}.cls-5{fill:#450a0a;}.cls-6{fill:#bc1b1b;}.cls-7{fill:#060636;}.cls-8{fill:#1e1ecf;}.cls-9{fill:#123f7d;}.cls-10{fill:#3d8ff8;}.cls-11{fill:#10737d;}.cls-12{fill:#24c9c9;}.cls-13{fill:#065606;}.cls-14{fill:#1cb71c;}.cls-15{fill:#5e811d;}.cls-16{fill:#8fc232;}</style></defs><g id="ElementLayer"><g id="Element"><path class="cls-1" d="M243.32,603.18a21.06,21.06,0,0,0,8.28,9.38,3.27,3.27,0,0,0,4.38-.4A184.75,184.75,0,0,0,271,597.21a2.7,2.7,0,0,0,2.29,0l36.7-61-3.23.19,4.39-6.36c.69.26,1.37.54,2.05.83l9-14.92s-3.4-7.45-4.05-10.22a8,8,0,0,1,.39-3.22l2.33-2.33a11.1,11.1,0,0,0,5.33-1.25c2.7-.29,1-2.15.72-2.85-2.47-5.8-1.38-11,1.32-16.55,3.26-6.64,6.75-13.16,10.37-19.73-4.33-4.28-9.37-6.91-15.09-8.93l-7.68,13.4c-4.09-7.63-7.63-15.12-12-22.09-3.09-4.92-3.7-9.42-1.56-14.71.65-1.59,2-3.58.35-5.51h0c-3-4-7.19-4.69-11.74-4.55-4.38-8.27-9.12-16.32-14-24.26-.57-.92-.83-2.43-2.53-2-5.25-.24-9,2.32-11.88,6.45-1.63,1.78-.27,3.23.6,4.67,6.39,10.67,12.49,21.5,18.06,32.62a4.6,4.6,0,0,1,.69,3.41c-1.56,5.9-3.09,11.82-4.72,18.07a42.32,42.32,0,0,1-5.31-9.8c-3.27-8.87-4.62-13-9.4-21.31-1.61-2.82-2.64-6.69-6.86-7.29s-7.43,1.09-10.11,4.16a6.17,6.17,0,0,0-2,3.93c-.23,4.57-.48,9.14-.86,13.7-.77,9.06-1.63,18.11-2.48,27.53a61.34,61.34,0,0,1-8.11-7.23c1.86-11.62,2.49-23.28,3.75-34.88.12-1.13.9-2.72-1.18-3.1a41.32,41.32,0,0,0-12.71-1.46c-1.65-.21-2.39.57-2.46,2.19-.06,1.2-.23,2.38-.35,3.57-.75,7.52-1.5,15-2.31,23.2-2.7-2.24-4.94-2-7,.12-2.53,2.32-4.56,4.94-5.07,8.46-.82,2.33-.08,3.95,2.05,5.19,2.42,1.4,4.72,3,7.13,4.54-.79,4.69-1.56,9.24-2.48,14.68l-9.82-13.91c-.58-.83-.73-2.24-2.31-1.63a32.1,32.1,0,0,0-11.61,7.42c-1.33.84-.8,1.73-.15,2.74,5.95,9.26,12.33,18.2,20,26.14a6.21,6.21,0,0,1,2,4.89c-.37,9.5-.26,19,.15,28.51a116.92,116.92,0,0,0,2.58,19.92,10,10,0,0,1,3.22-.36c10.51,1.6,11.2-6.15,11.2-6.15a119,119,0,0,0-.07-14.44c-.24-4-.09-8.07-.11-12.7,3.74,3.15,7.06,5.93,10.33,8.67-.63,8.77-.63,8.77,5.78,11.29-.42,1.51-.84,3-1.38,5.62l.93,38.52c3.54,1.13,7.16,2.13,11,3.29-3.15,3-5.92,5.79-8.83,8.4A3.35,3.35,0,0,0,243.32,603.18Zm52.34-101.54c-1.36-5.8-4.18-11.19-6.77-16.59-.51-1.07-1.22-2.09-.86-3.39,2-7.1,3.94-14.19,6.1-22,4.94,8.85,8.28,17.61,12.24,26.2,3.27,7.07.61,8.77.33,9.7-.95,3.08-1.33,9.49-1.38,10.33,0,.06-.09.09-.08.16,0,.6-1.73,2.24-2,2.2C299.56,507.41,296.72,506.14,295.66,501.64ZM258.25,458l.55-.13c3.4,8.33,6.9,16.62,10.14,25,.88,2.29-1.1,4.3-1.54,6.8a93.79,93.79,0,0,1-11.46-7.73Q257.09,470,258.25,458Zm-31.54,39.67a158.69,158.69,0,0,1,1.83-16.71c3.35,2.2,5.76,4.84,8.35,7.28a2.44,2.44,0,0,1,.89,2c0,6.4.05,12.8.08,19.21l-1.21.54c-3.05-3.21-6.09-6.44-9.17-9.62A3.13,3.13,0,0,1,226.71,497.62Zm41.83,29.12c.31-2.12.41-4,.08-4.15h0l-13.34-5.41c-.69-4.75-.13-9.52-.45-14.51,2.41.51,3.74,2.23,5.8,3.07-.6,1.55-1.17,3-1.84,4.79a52.15,52.15,0,0,0,14.89,7l10.89-1c.67-.17,7.75,5.08,8.82,5.43,1.68,1.47-31.29,42.2-34.08,43.17C256.58,561.77,264.67,537.31,268.54,526.74Z"/><path class="cls-1" d="M322.42,535.55l-12.39.73-36.7,61c2.67.91,2.17-2.26,4.05-3l4.16.53c8.34,1.08,16.69,2.22,25.11,1.38,5-.5,9.87-1.65,13.4-5.75.71.35,1.25-.84,2-.26a16.84,16.84,0,0,0,2.21,9.77c1.28,2.09,2.9,3.32,5.65,2.64,8.16-2,16.35-3.91,24.54-5.82,1.2-.28,2.39-.5,2.65-2,2.21-5.14.7-9.63-2.38-13.85-1.22-2.12-3.1-1.63-4.92-1.22-5.15,1.17-10.28,2.38-15.9,3.69,1.68-10.18,3.26-19.71,4.85-29.38,9.71.37,19.07.68,28.43,1.12,1.9.09,3.25-.22,3.67-2.26a37,37,0,0,0,.59-13.68c-.26-1.61-1.16-2.14-2.71-2.17-3.38-.07-6.76-.19-10.13-.4-5.71-.36-11.48.13-17.32-.84.59-4.8,1.15-9.34,1.69-13.88.15-1.25.74-2.81-1.54-2.67a42.89,42.89,0,0,0-14.54-1.89c-1.57-.39-3.34,0-4.68-1.28l-9,14.92A71,71,0,0,1,322.42,535.55Zm-10.8,39.56c-6.18,6-14.22,3.52-22.22,2.56,7.49-8.61,15.77-15.6,24.25-23.53l3.22-.2C317.67,561.79,317.32,569.55,311.62,575.11Z"/><path class="cls-2" d="M305.22,499.35a156.18,156.18,0,0,1,17.57-42.49,17.53,17.53,0,0,1,1.58-1.89l10.33,5.84c-2.46,4.71-4.83,9.22-7.16,13.75-4.71,9.17-7.92,18.9-10.67,28.8a8,8,0,0,0-.4,3.22c.66,2.77-.82,13.33-3.22,15.2-4.06,3.54-12.36,12.11-15.35,20.43a205.44,205.44,0,0,1-8.21,18.92c-5.9,12.35-12,24.59-18.06,36.88a2.63,2.63,0,0,1-2.29,0c-3.07-1.29-6.39-1.93-9.08-4.21-1.52-1.29-1.94-2.36-1.09-4.07,3.79-7.62,8.14-15,11.83-22.62a332.93,332.93,0,0,1,20.29-36c2.56-4,7-9.76,10.13-13.87C303.83,514.12,304.83,500.91,305.22,499.35Z"/><path class="cls-2" d="M220.94,555c-2.69-.11-5.24,1.29-8.11.8A87.18,87.18,0,0,1,210.45,538c-.3-15.29-.74-30.58.77-45.88,1.59-16.07,5.51-31.78,6.83-47.87.62-7.6,1.35-15.19,2-22.78a40.62,40.62,0,0,1,12.7,1.46c-1.9,19-3.65,37.93-7.26,56.69a153.18,153.18,0,0,0-2.3,21.76c-.41,8.31-.37,16.6-.37,24.9a156.35,156.35,0,0,0,1.27,18.6c.2,1.66-.23,8.92-3.18,10.14"/><path class="cls-2" d="M353,581.66c3.09,4.22,4.6,8.71,2.39,13.85-3.23-.68-6.09,1-9.1,1.56-5.48,1.11-10.89,2.49-16.58,3.81-.26-3.81-.13-7.22-1.79-10.32-2.44-.46-4.78-.94-7.14-1.31-1.42-.23-2.71-.09-2.45,1.92h0c-2.92-.74-4.73,1.79-7.18,2.48-7.54,2.12-23.43-.11-31.41-1.13,1.21-4,6.11-6.37,6.82-10.52,7.6.53,19.1,3.53,26.35-2.64l-1.08,8.37c1.08.77,2,1,2.77.49,2.22-12.47,4.74-24.72,6.41-37.11,1.49-11,3.39-22,4.16-33A42.86,42.86,0,0,1,339.74,520c-.09,4-.8,8-1.28,12-2.26,18.73-5.35,37.32-8.64,55.89-.19,1.08-.78,2.26.53,3.16,1.2-.66.92-1.76,1.11-2.66.24-1.09.47-2.24,1.78-2.48C339.89,584.71,346.3,582.43,353,581.66Z"/><path class="cls-2" d="M253.82,418.8c5.26,7,2.7,14.81,2.14,22.38S254.74,456.38,254,464c-1.17,12.58-2.41,25.16-2.95,37.79-.08,2-.09,3.94,0,5.9.1,3-.88,5.79-1.32,8.67-1.23,7.83-4.73,14.81-7.26,22.29l-4.9,0c-.63-2.53.2-4.9.44-7.19,1-9.61.27-19.22.34-28.83.07-10.6,1.21-21.09,2.33-31.6,1.06-10,1.75-19.95,2.63-29.93q.51-5.69,1.11-11.37a14.56,14.56,0,0,0-.71-6.77C246.39,419.9,249.67,418.3,253.82,418.8Z"/><path class="cls-2" d="M301,422.81c-3.44,10.12-5.58,20.6-8.38,30.9-4.67,17.15-8.6,34.52-14.81,51.23-1,2.65-2.18,5.23-3.38,7.8-.47,1-1.35,3.7-1.07,4.39l0,0c-4.86-1.3-9.1-4-13.77-5.92,2.69-6.76,5.27-13.22,7.83-19.69,4.89-12.41,7.68-25.45,11.48-38.2,3.27-11,5.31-22.26,8.89-33.14.29-.86.37-1.72,1.45-1.9C293.76,418.12,298,418.84,301,422.81Z"/><path class="cls-2" d="M266.93,523.37c-.89,5.11-3.33,9.69-5.31,14.38-4.53,10.74-8.92,47.59-9.92,49.69,1.24,1.84-8.44,1.38-9-.47-2.08-6.61-1.9-28.23-.55-35,2.35-11.83,6.68-23,11.46-34Z"/><path class="cls-2" d="M296.3,554.29c.74-3.36,2.66-5.68,3.66-8.35,2.28-6,6.55-8.53,12.9-7.89a64.45,64.45,0,0,0,6.52,0c.2,4.74-1,9.07-1.68,14A184.08,184.08,0,0,0,296.3,554.29Z"/><path class="cls-2" d="M367.84,539.2a60.32,60.32,0,0,0-1.07,13.25c-9.74-1.68-19.17.1-28.81-1.6-.17-4.09.93-7.92,1.46-12.4C348.92,539.35,358.2,538.82,367.84,539.2Z"/></g><g id="Element-2" data-name="Element"><path class="cls-3" d="M484.89,642.1a21,21,0,0,0,12.48.77,3.27,3.27,0,0,0,2.81-3.38,185.82,185.82,0,0,0,.1-21.24c.68-.38,1.43-.71,1.63-1.59l-17.08-69.09L482.68,550c-.52-2.87-.94-5.15-1.39-7.61.68-.3,1.36-.58,2-.86l-4.18-16.91s-7.67-2.86-10.09-4.36a8.07,8.07,0,0,1-2-2.56V514.4a11.09,11.09,0,0,0,2.88-4.66c1.71-2.11-.79-2.24-1.5-2.52-5.84-2.36-8.77-6.84-10.75-12.64-2.39-7-4.52-14.09-6.6-21.3-6.09,0-11.5,1.74-17,4.37,1.33,4.93,2.63,9.72,4,14.91-8.28-2.5-16.08-5.3-24.09-7.13-5.66-1.29-9.27-4-11.49-9.3-.67-1.58-1.14-3.93-3.64-4.14h0c-4.9-.71-8.4,1.77-11.53,5.08-8.93-2.75-18-5.09-27.06-7.22-1-.25-2.3-1.13-3.2.37-3.89,3.54-4.72,8-3.86,13,.11,2.42,2.09,2.48,3.73,2.89,12.05,3,24,6.36,35.81,10.29a4.54,4.54,0,0,1,2.89,1.92c3.07,5.28,6.16,10.55,9.43,16.13a42.7,42.7,0,0,1-10.68-3.18c-8.58-4-12.43-5.9-21.7-8.42-3.13-.86-6.59-2.87-10-.31s-4.49,6-4.22,10.1a6.23,6.23,0,0,0,1.34,4.23c3.07,3.39,6.12,6.8,9.07,10.29,5.85,7,11.63,14,17.68,21.24a62.37,62.37,0,0,1-10.84.62c-6.89-9.54-14.68-18.24-22-27.32-.71-.89-1.28-2.57-3-1.37a41.27,41.27,0,0,0-10,8c-1.31,1-1.29,2.1-.19,3.3.8.88,1.51,1.84,2.27,2.77l14.75,18c-3.5.33-4.92,2.08-4.83,5-.16,3.42.26,6.71,2.38,9.57,1.07,2.22,2.74,2.85,5.12,2.21,2.7-.72,5.45-1.22,8.25-1.83l8.61,12.15c-6.16-1.07-11.47-2-16.77-2.9-1-.17-2.09-1.07-2.78.48a32.1,32.1,0,0,0-3,13.46c-.34,1.54.66,1.8,1.84,2,10.75,2.34,21.57,4.15,32.6,4.35a6.17,6.17,0,0,1,4.89,2c6.45,7,13.24,13.63,20.24,20.06a116.55,116.55,0,0,0,15.89,12.26,9.71,9.71,0,0,1,2-2.53c8.56-6.3,3.57-12.28,3.57-12.28a118.93,118.93,0,0,0-10.24-10.16c-3-2.68-5.77-5.64-9.05-8.9l13.43-1.18c5.74,6.65,5.74,6.65,12.06,3.9.77,1.36,1.55,2.74,3,4.94l27.86,26.6c3.3-1.71,6.57-3.57,10.14-5.49-.1,4.37-.1,8.28-.31,12.19A3.33,3.33,0,0,0,484.89,642.1ZM450.21,533.24c-5.07-3.14-10.87-5-16.51-7-1.12-.4-2.34-.61-3-1.79l-11.22-19.87c9.75,2.77,18.3,6.6,27.16,9.87,7.31,2.69,6.63,5.77,7.09,6.63,1.5,2.85,5.76,7.65,6.31,8.28,0,.05,0,.13.06.17a4.63,4.63,0,0,1,.12,3C457,534.55,454.13,535.67,450.21,533.24Zm-57.32-4.43.3-.48c8.28,3.48,16.61,6.86,24.83,10.5,2.23,1,2.25,3.82,3.7,5.9a92.75,92.75,0,0,1-13.56,2.64Zm5.71,50.38a161.24,161.24,0,0,1-10.51-13.12c3.92-.81,7.49-.66,11-.76a2.45,2.45,0,0,1,2,.76c4.52,4.54,9.08,9,13.63,13.53l-.48,1.25c-4.43-.11-8.85-.25-13.27-.32A3.12,3.12,0,0,1,398.6,579.19Zm50.15-9c-1.28-1.72-2.56-3.14-2.88-3h0l-13.25,5.62c-3.85-2.87-6.81-6.64-10.57-9.94,2.07-1.35,4.22-1.07,6.27-1.93.68,1.51,1.32,3,2.08,4.68A52.13,52.13,0,0,0,445.89,560l7-8.42c.36-.59,9.07-1.88,10.08-2.4,2.23-.15,7.67,52,6.38,54.66C465,603.42,453.48,580.39,448.75,570.18Z"/><path class="cls-3" d="M493.08,538.28l-8.25,9.29,17.09,69.09c2.53-1.25-.06-3.14.74-5l3.32-2.57c6.65-5.14,13.37-10.24,18.73-16.79,3.17-3.88,5.82-8.15,5.42-13.55.75-.26.29-1.48,1.24-1.61a16.73,16.73,0,0,0,8.46,5.35c2.38.58,4.4.3,5.86-2.13,4.34-7.21,8.81-14.33,13.24-21.48.65-1,1.34-2,.48-3.29-2.07-5.19-6.31-7.3-11.47-8.1-2.35-.64-3.35,1-4.34,2.62-2.81,4.46-5.59,8.95-8.64,13.85-6-8.39-11.62-16.24-17.31-24.21,7.12-6.61,14-13,20.9-19.32,1.4-1.28,2.14-2.46,1-4.2a37.2,37.2,0,0,0-9.24-10.09c-1.34-1-2.35-.7-3.46.38q-3.66,3.51-7.45,6.88c-4.29,3.79-8,8.21-12.84,11.67-3-3.81-5.78-7.42-8.61-11-.77-1-1.46-2.51-3-.8a43.29,43.29,0,0,0-11.62,9c-1.38.83-2.37,2.34-4.2,2.4l4.18,16.91A72.29,72.29,0,0,1,493.08,538.28Zm20.3,35.63c-.11,8.63-7.58,12.55-13.91,17.53-.78-11.39.14-22.19.53-33.8l2.14-2.42C508.25,560.2,513.48,565.94,513.38,573.91Z"/><path class="cls-4" d="M455.35,524.85a155.89,155.89,0,0,1-17.58-42.49,17.93,17.93,0,0,1-.21-2.45L449,476.73c1.59,5.07,3.1,9.94,4.65,14.79,3.15,9.82,7.75,19,12.79,27.92a8.07,8.07,0,0,0,2,2.56c2.42,1.49,8.83,10,8.45,13-.37,5.38-.19,17.32,3.58,25.32A204.26,204.26,0,0,1,488,579.54c4.55,12.91,8.86,25.9,13.28,38.86-.21.88-.95,1.22-1.64,1.6-3.09,1.26-5.89,3.16-9.41,3.45-2,.16-3-.3-3.64-2.1-2.7-8.08-4.8-16.34-7.61-24.38a333.13,333.13,0,0,1-11-39.79c-1-4.63-2-11.83-2.63-17C464.8,536.28,456.17,526.23,455.35,524.85Z"/><path class="cls-4" d="M435,623.86c-2,1.82-2.79,4.62-5.17,6.31a87,87,0,0,1-14.26-10.93c-11-10.6-22.13-21.1-31.86-33-10.23-12.49-18.55-26.37-29-38.69-4.92-5.81-9.77-11.69-14.65-17.55a41.27,41.27,0,0,1,10-8c12,14.76,24.2,29.42,34.89,45.25a155.91,155.91,0,0,0,13.74,17c5.58,6.16,11.47,12,17.33,17.87a154,154,0,0,0,14,12.25c1.31,1,6.14,6.48,4.91,9.43"/><path class="cls-4" d="M547.29,549.24c5.17.8,9.41,2.91,11.47,8.1-2.77,1.81-3.63,5-5.33,7.55-3.09,4.65-5.95,9.47-9,14.42-2.88-2.5-5.2-5-8.57-6-2,1.4-4,2.72-6,4.12-1.17.85-2,1.86-.38,3.1h0c-2.58,1.55-2.08,4.62-3.33,6.85-3.83,6.83-16.64,16.49-23,21.42-2-3.7-.17-8.83-2.6-12.27,5.75-5,16-11,16.78-20.51l5.13,6.68c1.32-.22,2.09-.69,2.31-1.61-7.23-10.39-14.1-20.83-21.67-30.79-6.71-8.83-13.1-17.91-20.38-26.3a42.78,42.78,0,0,1,11.62-9c2.79,2.93,5.09,6.24,7.58,9.42,11.62,14.84,22.57,30.18,33.36,45.64.63.9,1,2.15,2.6,1.86.39-1.31-.59-1.89-1.09-2.67s-1.25-1.91-.49-3C540.14,560.69,543.07,554.55,547.29,549.24Z"/><path class="cls-4" d="M362.11,504.25c8.68,1.24,12.37,8.56,17.32,14.31s9.87,11.62,14.73,17.49c8,9.73,16.06,19.5,24.6,28.81,1.32,1.45,2.71,2.85,4.15,4.2,2.18,2,3.46,4.72,5.18,7.07,4.66,6.4,7.11,13.82,10.61,20.9l-3.45,3.49c-2.23-1.35-3.32-3.61-4.76-5.39-6.09-7.51-13.39-13.8-20.13-20.64-7.42-7.55-14-15.77-20.66-24-6.28-7.79-12.85-15.36-19.28-23q-3.66-4.38-7.24-8.83a14.43,14.43,0,0,0-5.28-4.28C357.63,510.28,358.83,506.83,362.11,504.25Z"/><path class="cls-4" d="M398.28,473.73c4.71,9.6,10.6,18.52,15.89,27.79C423,517,432.46,532,439.87,548.23c1.18,2.58,2.15,5.25,3.13,7.92.38,1.06,1.65,3.56,2.33,3.86v0c-4.35,2.53-9.24,3.64-13.91,5.57-2.88-6.69-5.61-13.09-8.37-19.47-5.3-12.24-12.54-23.44-18.85-35.14-5.44-10.07-12-19.5-17.12-29.74-.41-.81-1-1.47-.33-2.37C389.88,475.51,393.38,473,398.28,473.73Z"/><path class="cls-4" d="M445.22,568.93c3,4.25,4.49,9.22,6.41,13.94,4.38,10.79,27.3,40,28.07,42.16,2.18.42-5,7-6.71,6.05-6.14-3.21-21.28-18.63-25.09-24.35-6.69-10-11.52-21-15.93-32.18Z"/><path class="cls-4" d="M487.84,570c-1.85-2.9-2.14-5.89-3.31-8.5-2.64-5.86-1.39-10.67,3.55-14.7a62.8,62.8,0,0,0,4.61-4.62c3.5,3.22,5.69,7.14,8.66,11.06A184.2,184.2,0,0,0,487.84,570Z"/><path class="cls-4" d="M527.78,508.73a60.65,60.65,0,0,0,8.61,10.13c-8.09,5.7-13.5,13.63-21.51,19.25-3-2.78-4.94-6.26-7.73-9.8C514.5,522.22,520.7,515.28,527.78,508.73Z"/></g><g id="Element-3" data-name="Element"><path class="cls-5" d="M680.93,499a21.1,21.1,0,0,0,9.44-8.21,3.28,3.28,0,0,0-.37-4.39,183,183,0,0,0-14.8-15.2,2.66,2.66,0,0,0,0-2.29l-60.57-37.28c.05,1.07.11,2.13.16,3.23l-6.32-4.45c.28-.69.56-1.36.85-2l-14.82-9.12s-7.47,3.34-10.24,4a8.05,8.05,0,0,1-3.22-.43l-2.3-2.35a11.17,11.17,0,0,0-1.21-5.35c-.27-2.7-2.13-1-2.84-.74-5.81,2.42-11,1.28-16.52-1.46-6.61-3.32-13.08-6.88-19.61-10.56-4.33,4.29-7,9.32-9.06,15l13.32,7.81c-7.66,4-15.18,7.5-22.17,11.82-4.94,3.05-9.45,3.62-14.71,1.43-1.59-.66-3.56-2-5.5-.4h0c-4,2.94-4.75,7.16-4.65,11.72-8.3,4.3-16.38,9-24.36,13.83-.92.57-2.44.82-2,2.52-.29,5.26,2.24,9,6.33,11.95,1.78,1.64,3.23.3,4.68-.55,10.71-6.31,21.58-12.32,32.74-17.8a4.61,4.61,0,0,1,3.41-.66c5.89,1.61,11.79,3.19,18,4.88a42.62,42.62,0,0,1-9.84,5.23c-8.89,3.2-13,4.52-21.37,9.22-2.83,1.59-6.71,2.58-7.35,6.81s1,7.44,4.07,10.15a6.16,6.16,0,0,0,3.92,2.08c4.56.27,9.12.56,13.67,1,9,.85,18.07,1.79,27.48,2.73a63,63,0,0,1-7.29,8.05c-11.6-2-23.24-2.7-34.81-4.06-1.13-.13-2.72-.93-3.12,1.15a41.36,41.36,0,0,0-1.56,12.71c-.22,1.65.55,2.4,2.17,2.48,1.19.07,2.37.25,3.56.38l23.15,2.52c-2.26,2.69-2,4.93.06,7,2.29,2.55,4.89,4.6,8.41,5.15,2.32.84,4,.11,5.2-2,1.42-2.41,3-4.7,4.6-7.1l14.64,2.62c-5.14,3.57-9.55,6.64-14,9.7-.83.58-2.24.71-1.65,2.3a32,32,0,0,0,7.31,11.69c.83,1.34,1.72.82,2.74.17,9.3-5.87,18.29-12.18,26.29-19.78a6.19,6.19,0,0,1,4.89-2c9.5.46,19,.44,28.49.1a115.45,115.45,0,0,0,19.92-2.41,10,10,0,0,1-.33-3.22c1.69-10.5-6-11.26-6-11.26a118.15,118.15,0,0,0-14.42-.07c-4,.21-8.06,0-12.69,0,3.18-3.72,6-7,8.75-10.27,8.76.71,8.76.71,11.33-5.68,1.5.43,3,.87,5.6,1.42l38.49-.59c1.16-3.53,2.19-7.15,3.39-11,3,3.18,5.73,6,8.31,8.91A3.34,3.34,0,0,0,680.93,499ZM580,445.66c-5.82,1.31-11.22,4.09-16.64,6.63-1.08.5-2.1,1.21-3.4.83L538,446.82c8.89-4.86,17.67-8.13,26.28-12,7.09-3.21,8.77-.54,9.7-.24,3.06,1,9.46,1.41,10.3,1.47.06,0,.09.09.16.09.6,0,2.22,1.74,2.18,2C585.75,441.81,584.46,444.64,580,445.66Zm-44,37.06-.12-.55c8.34-3.33,16.65-6.76,25.06-9.93,2.29-.86,4.28,1.14,6.77,1.6a90.87,90.87,0,0,1-7.82,11.41Zm39.35,31.93a162.39,162.39,0,0,1-16.68-2c2.23-3.33,4.89-5.72,7.35-8.29a2.49,2.49,0,0,1,2-.88c6.4.07,12.79.07,19.19.09.18.41.35.82.53,1.22-3.23,3-6.48,6-9.68,9.09A3.17,3.17,0,0,1,575.33,514.65ZM604.79,473c-2.12-.34-4-.45-4.15-.12h0l-5.52,13.31c-4.75.65-9.51,0-14.5.32.53-2.41,2.27-3.72,3.12-5.78l4.77,1.89a52.28,52.28,0,0,0,7.13-14.85l-.92-10.9c-.16-.68,5.15-7.72,5.51-8.79,1.49-1.67,41.89,31.69,42.83,34.49C639.67,485.3,615.32,477,604.79,473Z"/><path class="cls-5" d="M614.06,419.17c.22,4.41.42,8.31.62,12.41l60.57,37.27c.94-2.66-2.24-2.19-3-4.08.15-1.15.36-2.65.56-4.16,1.15-8.33,2.36-16.69,1.6-25.12-.46-5-1.56-9.89-5.62-13.46.35-.71-.84-1.26-.25-2a16.7,16.7,0,0,0,9.78-2.13c2.1-1.25,3.35-2.87,2.69-5.63-2-8.18-3.76-16.4-5.6-24.61-.27-1.2-.48-2.39-2-2.68-5.11-2.25-9.61-.78-13.85,2.27-2.13,1.2-1.66,3.09-1.26,4.92,1.12,5.16,2.28,10.31,3.54,15.94L632.6,403c.46-9.71.86-19.08,1.38-28.44.1-1.9-.2-3.26-2.23-3.7a37.16,37.16,0,0,0-13.66-.71c-1.62.26-2.15,1.15-2.2,2.7q-.14,5.07-.49,10.14c-.4,5.71,0,11.48-1,17.33-4.79-.63-9.32-1.24-13.86-1.82-1.24-.16-2.8-.77-2.68,1.52a43.17,43.17,0,0,0-2,14.54c-.4,1.57,0,3.35-1.32,4.67l14.82,9.12A73.13,73.13,0,0,1,614.06,419.17Zm39.42,11.16c6,6.23,3.39,14.26,2.37,22.26-8.53-7.57-15.44-15.92-23.3-24.47,0-.29-.08-1.57-.17-3.23C640.23,424.15,648,424.58,653.48,430.33Z"/><path class="cls-6" d="M577.75,436.07a155.74,155.74,0,0,1-42.29-18,17,17,0,0,1-1.88-1.6l5.92-10.28c4.69,2.49,9.17,4.91,13.68,7.28,9.12,4.8,18.81,8.09,28.68,10.93a8,8,0,0,0,3.21.43c2.77-.63,13.3.95,15.15,3.36,3.5,4.09,12,12.48,20.28,15.54a202.73,202.73,0,0,1,18.82,8.39c12.29,6,24.47,12.25,36.69,18.4a2.66,2.66,0,0,1,0,2.29c-1.32,3.06-2,6.39-4.29,9.06-1.3,1.51-2.37,1.92-4.07,1-7.58-3.86-14.86-8.28-22.49-12a332.66,332.66,0,0,1-35.74-20.63c-4-2.6-9.68-7.06-13.76-10.25C592.49,437.59,579.3,436.48,577.75,436.07Z"/><path class="cls-6" d="M632.61,520.92c-.14,2.69,1.24,5.26.73,8.13a87.06,87.06,0,0,1-17.82,2.22c-15.28.17-30.56.48-45.83-1.17-16-1.73-31.7-5.79-47.76-7.25-7.58-.69-15.16-1.49-22.74-2.24a41,41,0,0,1,1.57-12.7c18.92,2.07,37.86,4,56.57,7.77a154.12,154.12,0,0,0,21.72,2.49c8.29.48,16.58.51,24.87.59a154.19,154.19,0,0,0,18.59-1.11c1.65-.18,8.91.31,10.1,3.27"/><path class="cls-6" d="M660.39,388.93c4.24-3.05,8.74-4.52,13.85-2.26-.7,3.23.9,6.1,1.49,9.12,1,5.49,2.39,10.93,3.66,16.62-3.81.24-7.22.07-10.33,1.71-.48,2.43-1,4.77-1.37,7.13-.24,1.42-.12,2.72,1.9,2.48h0c-.76,2.92,1.75,4.75,2.42,7.22,2,7.56-.32,23.44-1.41,31.43-4-1.26-6.3-6.18-10.44-6.93.59-7.6,3.69-19.08-2.41-26.4l8.35,1.16c.78-1.08,1-2,.51-2.76-12.43-2.34-24.64-5-37-6.75-11-1.59-21.89-3.58-33-4.46a43.11,43.11,0,0,1,2-14.53c4,.12,8,.87,12,1.39,18.68,2.43,37.23,5.68,55.75,9.13,1.08.2,2.25.81,3.16-.5-.64-1.21-1.75-.93-2.65-1.14-1.08-.24-2.23-.48-2.45-1.8C663.32,402.12,661.1,395.68,660.39,388.93Z"/><path class="cls-6" d="M496.84,486.82c7.05-5.21,14.81-2.58,22.37-1.95S534.38,486.23,542,487c12.56,1.29,25.11,2.63,37.72,3.29q2.94.15,5.9.07c3-.07,5.77.93,8.64,1.41,7.81,1.29,14.76,4.86,22.21,7.46l0,4.9c-2.53.61-4.89-.24-7.17-.5-9.6-1.08-19.21-.44-28.81-.59-10.58-.17-21-1.4-31.54-2.61C539,499.28,529,498.5,519,497.53q-5.67-.55-11.34-1.21a14.54,14.54,0,0,0-6.77.65C497.86,494.26,496.3,491,496.84,486.82Z"/><path class="cls-6" d="M501.25,439.67c10.08,3.54,20.53,5.77,30.79,8.67,17.09,4.82,34.41,8.91,51.05,15.27,2.64,1,5.21,2.23,7.77,3.45,1,.48,3.68,1.38,4.37,1.11l0,0c-1.33,4.87-4,9.09-6,13.74-6.74-2.75-13.16-5.4-19.6-8-12.36-5-25.37-7.92-38.06-11.83-10.93-3.37-22.19-5.5-33-9.19-.86-.29-1.71-.38-1.89-1.46C496.5,446.83,497.26,442.61,501.25,439.67Z"/><path class="cls-6" d="M601.4,474.61c5.11.94,9.66,3.42,14.33,5.44,10.68,4.63,47.46,9.35,49.55,10.37,1.85-1.23,1.3,8.46-.55,9-6.63,2-28.23,1.65-34.94.25-11.8-2.46-22.93-6.9-33.9-11.77Z"/><path class="cls-6" d="M632.55,445.48c-3.35-.77-5.65-2.71-8.31-3.74-6-2.32-8.47-6.63-7.77-13a61.54,61.54,0,0,0,.06-6.52c4.74-.16,9.05,1.09,13.92,1.81A185.87,185.87,0,0,0,632.55,445.48Z"/><path class="cls-6" d="M618.11,373.74a59.88,59.88,0,0,0,13.23,1.19c-1.77,9.74-.08,19.19-1.86,28.82-4.09.13-7.9-1-12.37-1.57C618.09,392.68,617.64,383.39,618.11,373.74Z"/></g><g id="Element-4" data-name="Element"><path class="cls-7" d="M721.4,259a21.06,21.06,0,0,0,.89-12.48,3.27,3.27,0,0,0-3.36-2.85,183.07,183.07,0,0,0-21.21-.28c-.38-.7-.7-1.44-1.58-1.66L627,258.26l2.39,2.17-7.61,1.32c-.3-.68-.57-1.36-.85-2l-16.92,4s-2.93,7.65-4.45,10.06a7.92,7.92,0,0,1-2.57,2l-3.29,0a11.14,11.14,0,0,0-4.63-2.93c-2.1-1.72-2.24.77-2.53,1.49-2.41,5.82-6.91,8.71-12.72,10.64-7,2.33-14.11,4.4-21.33,6.42,0,6.09,1.63,11.53,4.2,17l14.94-3.91c-2.58,8.27-5.44,16.05-7.34,24.06-1.34,5.65-4.12,9.24-9.39,11.42-1.59.65-3.93,1.1-4.17,3.6h0c-.76,4.9,1.69,8.42,5,11.58-2.83,8.92-5.25,17.94-7.46,27-.26,1.05-1.15,2.3.34,3.22,3.51,3.92,7.95,4.79,12.92,4,2.41-.09,2.49-2.07,2.91-3.7,3.13-12,6.57-24,10.6-35.75a4.65,4.65,0,0,1,1.94-2.89c5.31-3,10.6-6.07,16.2-9.29a42.34,42.34,0,0,1-3.27,10.66c-4,8.56-6,12.39-8.61,21.65-.88,3.13-2.92,6.57-.39,10s6,4.54,10,4.31a6.2,6.2,0,0,0,4.24-1.31c3.41-3,6.84-6.06,10.36-9,7-5.8,14.05-11.52,21.37-17.51a62.06,62.06,0,0,1,.52,10.86c-9.59,6.81-18.34,14.53-27.49,21.75-.89.71-2.57,1.27-1.38,3a41.18,41.18,0,0,0,7.86,10.1c1,1.32,2.08,1.3,3.29.22.89-.8,1.85-1.5,2.78-2.25l18.16-14.6c.29,3.5,2,4.93,5,4.88,3.42.18,6.71-.21,9.58-2.31,2.23-1,2.87-2.71,2.26-5.1-.7-2.71-1.17-5.47-1.76-8.28l12.21-8.51c-1.12,6.17-2.07,11.47-3,16.76-.18,1-1.09,2.09.45,2.8A32,32,0,0,0,668.71,389c1.54.36,1.81-.64,2.07-1.81,2.43-10.74,4.34-21.56,4.63-32.6a6.2,6.2,0,0,1,2.05-4.88c7-6.39,13.74-13.13,20.22-20.08a116.6,116.6,0,0,0,12.39-15.8,9.86,9.86,0,0,1-2.51-2.05c-6.22-8.62-12.23-3.68-12.23-3.68a118.9,118.9,0,0,0-10.25,10.16c-2.7,3-5.68,5.72-9,9-.38-4.88-.72-9.2-1.06-13.46,6.7-5.69,6.7-5.69,4-12,1.37-.76,2.76-1.53,5-2.95l26.81-27.66c-1.67-3.31-3.5-6.6-5.38-10.19,4.36.14,8.27.17,12.17.42A3.33,3.33,0,0,0,721.4,259Zm-109,33.75c-3.18,5-5.05,10.83-7.09,16.46-.4,1.12-.63,2.33-1.81,3l-20,11.05c2.85-9.73,6.75-18.26,10.1-27.1,2.75-7.29,5.83-6.59,6.69-7,2.86-1.48,7.69-5.7,8.33-6.25,0-.05.12,0,.17-.05a4.52,4.52,0,0,1,3-.1C613.72,286,614.81,288.88,612.35,292.79Zm-4.94,57.33-.47-.3c3.55-8.26,7-16.57,10.71-24.76,1-2.23,3.84-2.22,5.92-3.66a91.81,91.81,0,0,1,2.52,13.6Zm50.38-5.26a162.59,162.59,0,0,1-13.2,10.4c-.77-3.94-.59-7.51-.66-11.07a2.48,2.48,0,0,1,.78-2c4.58-4.48,9.1-9,13.64-13.52l1.24.49c-.15,4.43-.32,8.86-.43,13.28A3.14,3.14,0,0,1,657.79,344.86Zm-8.55-50.28c-1.73,1.26-3.16,2.53-3,2.85h0q2.74,6.66,5.5,13.31c-2.91,3.83-6.7,6.77-10,10.49-1.33-2.08-1-4.23-1.88-6.29l4.7-2a51.91,51.91,0,0,0-5.43-15.55l-8.35-7.06c-.59-.37-1.81-9.1-2.31-10.11-.13-2.24,52-7.22,54.65-5.91C682.59,278.58,659.48,289.93,649.24,294.58Z"/><path class="cls-7" d="M617.77,249.92l9.21,8.34,69.16-16.49c-1.22-2.55-3.14,0-5-.79l-2.54-3.34c-5.07-6.71-10.12-13.48-16.61-18.9-3.84-3.21-8.09-5.9-13.48-5.55-.26-.75-1.48-.3-1.6-1.25a16.82,16.82,0,0,0,5.41-8.42c.6-2.38.34-4.41-2.07-5.89-7.16-4.41-14.24-8.94-21.34-13.45-1-.66-2-1.36-3.28-.5-5.21,2-7.35,6.24-8.2,11.4-.66,2.36,1,3.36,2.58,4.37,4.44,2.86,8.9,5.68,13.77,8.78l-24.35,17.11c-6.53-7.19-12.87-14.1-19.11-21.09-1.27-1.42-2.44-2.17-4.19-1A37.17,37.17,0,0,0,586,212.37c-1,1.32-.71,2.34.35,3.46,2.32,2.46,4.6,5,6.81,7.52,3.75,4.33,8.13,8.1,11.54,13-3.83,2.94-7.47,5.72-11.08,8.52-1,.76-2.53,1.43-.83,3a43.49,43.49,0,0,0,8.84,11.71c.83,1.39,2.33,2.4,2.37,4.23l16.92-4A72.21,72.21,0,0,1,617.77,249.92Zm35.77-20c8.62.19,12.47,7.69,17.39,14.07-11.38.68-22.17-.34-33.76-.83l-2.4-2.16C639.8,234.92,645.58,229.74,653.54,229.92Z"/><path class="cls-8" d="M604,287.57a156,156,0,0,1-42.6,17.21,18.39,18.39,0,0,1-2.46.2l-3.07-11.47c5.08-1.55,10-3,14.82-4.52,9.83-3.06,19-7.58,28-12.56a7.82,7.82,0,0,0,2.58-2c1.51-2.4,10.08-8.74,13.09-8.34,5.36.42,17.29.34,25.32-3.36a206,206,0,0,1,19.23-7.38c12.94-4.44,26-8.64,39-12.95.88.22,1.2,1,1.58,1.66,1.23,3.1,3.11,5.92,3.36,9.45.15,2-.32,3-2.13,3.62-8.09,2.63-16.36,4.66-24.42,7.4a333.46,333.46,0,0,1-39.84,10.69c-4.64,1-11.84,1.86-17,2.48C615.52,278.21,605.4,286.75,604,287.57Z"/><path class="cls-8" d="M702.74,308.77c1.8,2,4.59,2.84,6.26,5.23a87.14,87.14,0,0,1-11,14.18c-10.68,10.94-21.27,22-33.24,31.6-12.57,10.13-26.51,18.33-38.91,28.66C620,393.32,614,398.12,608.14,403a40.94,40.94,0,0,1-7.86-10.09c14.85-11.93,29.6-24,45.5-34.53a153.56,153.56,0,0,0,17.13-13.61c6.2-5.53,12.09-11.37,18-17.18a154.13,154.13,0,0,0,12.36-13.93c1-1.31,6.52-6.09,9.46-4.84"/><path class="cls-8" d="M629.19,195.75c.85-5.16,3-9.39,8.2-11.41,1.78,2.79,5,3.68,7.49,5.41,4.63,3.13,9.41,6,14.33,9.16-2.53,2.87-5.06,5.16-6.1,8.53,1.38,2.05,2.68,4.06,4.06,6,.84,1.17,1.84,2,3.1.4h0c1.52,2.61,4.59,2.13,6.81,3.4,6.79,3.89,16.33,16.8,21.19,23.23-3.72,1.94-8.82.09-12.28,2.49-4.94-5.8-10.86-16.11-20.34-17l6.73-5.08c-.22-1.32-.68-2.1-1.59-2.32-10.44,7.14-20.94,13.93-30.95,21.41-8.89,6.65-18,13-26.46,20.17a42.93,42.93,0,0,1-8.84-11.71c2.94-2.76,6.28-5,9.47-7.5,14.93-11.51,30.35-22.33,45.89-33,.91-.62,2.16-1,1.88-2.59-1.31-.4-1.9.57-2.68,1.07-.93.59-1.92,1.24-3,.46C640.58,203,634.46,200,629.19,195.75Z"/><path class="cls-8" d="M582.61,380.71c1.32-8.68,8.66-12.3,14.45-17.21s11.69-9.77,17.6-14.59c9.79-8,19.62-15.9,29-24.36q2.19-2,4.23-4.12c2.06-2.16,4.74-3.42,7.11-5.12,6.44-4.61,13.87-7,21-10.43l3.45,3.48c-1.36,2.22-3.62,3.28-5.42,4.72-7.56,6-13.9,13.27-20.8,20-7.6,7.36-15.88,13.9-24.15,20.47-7.84,6.22-15.46,12.72-23.19,19.09-2.93,2.42-5.9,4.8-8.88,7.17a14.46,14.46,0,0,0-4.32,5.25C588.6,385.25,585.16,384,582.61,380.71Z"/><path class="cls-8" d="M552.45,344.24c9.63-4.63,18.59-10.45,27.89-15.66,15.5-8.68,30.64-18,46.89-25.31,2.59-1.16,5.27-2.11,7.94-3.06,1.06-.38,3.58-1.63,3.88-2.3h0c2.49,4.38,3.56,9.28,5.44,14-6.71,2.82-13.12,5.5-19.52,8.21-12.28,5.2-23.53,12.34-35.28,18.55-10.1,5.35-19.58,11.81-29.85,16.87-.82.4-1.48.95-2.37.31C554.14,352.66,551.7,349.14,552.45,344.24Z"/><path class="cls-8" d="M648,298.09c4.27-2.95,9.25-4.41,14-6.29,10.82-4.28,40.17-27,42.37-27.72.44-2.18,6.89,5.06,6,6.77C707,277,691.49,292,685.75,295.75c-10.09,6.6-21.09,11.34-32.29,15.66Z"/><path class="cls-8" d="M649.43,255.44c-2.92,1.83-5.91,2.09-8.52,3.24-5.88,2.59-10.67,1.3-14.66-3.68a62.69,62.69,0,0,0-4.57-4.66c3.24-3.47,7.18-5.63,11.13-8.57A182.94,182.94,0,0,0,649.43,255.44Z"/><path class="cls-8" d="M588.56,214.92a60.31,60.31,0,0,0,10.19-8.52c5.63,8.14,13.5,13.63,19,21.7-2.8,3-6.3,4.88-9.86,7.64C601.92,228.33,595,222.07,588.56,214.92Z"/></g><g id="Element-5" data-name="Element"><path class="cls-9" d="M577.61,60.23a21.11,21.11,0,0,0-8.31-9.35,3.27,3.27,0,0,0-4.38.42,186.36,186.36,0,0,0-15,15,2.66,2.66,0,0,0-2.29,0l-36.48,61.09,3.22-.21c-1.64,2.41-2.95,4.32-4.37,6.39l-2.05-.83L499,147.66s3.43,7.45,4.09,10.21a8,8,0,0,1-.38,3.22l-2.32,2.34a11.12,11.12,0,0,0-5.33,1.28c-2.69.3-1,2.14-.71,2.85,2.49,5.79,1.42,11-1.26,16.55-3.23,6.66-6.7,13.18-10.3,19.76,4.34,4.28,9.39,6.88,15.12,8.88l7.64-13.43c4.12,7.62,7.68,15.1,12.08,22.05,3.11,4.91,3.74,9.41,1.61,14.71-.63,1.59-2,3.59-.33,5.51h0c3,4,7.21,4.66,11.76,4.51,4.41,8.25,9.17,16.28,14.12,24.21.58.92.85,2.43,2.54,2,5.26.22,9-2.35,11.86-6.49,1.62-1.79.26-3.23-.61-4.67C552.16,250.5,546,239.7,540.41,228.6a4.67,4.67,0,0,1-.71-3.41c1.54-5.91,3.06-11.83,4.66-18.1a42.72,42.72,0,0,1,5.35,9.79c3.3,8.86,4.67,13,9.47,21.28,1.63,2.81,2.66,6.68,6.89,7.27s7.43-1.12,10.09-4.2a6.2,6.2,0,0,0,2-3.94c.22-4.57.44-9.14.81-13.7.74-9.06,1.57-18.11,2.39-27.54a62.09,62.09,0,0,1,8.13,7.2c-1.82,11.63-2.41,23.29-3.62,34.89-.12,1.13-.9,2.73,1.19,3.1a41,41,0,0,0,12.71,1.41c1.65.2,2.38-.58,2.45-2.2,0-1.19.22-2.38.34-3.57.72-7.51,1.44-15,2.23-23.2,2.71,2.23,4.94,2,6.95-.15,2.52-2.32,4.54-4.95,5-8.48.81-2.33.06-4-2.08-5.18-2.42-1.39-4.72-3-7.14-4.52.78-4.68,1.53-9.24,2.43-14.69,3.63,5.11,6.76,9.49,9.87,13.88.59.83.73,2.24,2.32,1.63a32,32,0,0,0,11.58-7.46c1.33-.85.8-1.74.14-2.75-6-9.24-12.39-18.16-20.08-26.07a6.22,6.22,0,0,1-2.06-4.87c.34-9.51.2-19-.25-28.52a116.88,116.88,0,0,0-2.65-19.91,10,10,0,0,1-3.22.37c-10.51-1.56-11.18,6.2-11.18,6.2a120.37,120.37,0,0,0,.12,14.43c.26,4,.12,8.07.16,12.7l-10.36-8.63c.6-8.77.6-8.77-5.82-11.27.41-1.51.83-3,1.36-5.62l-1.07-38.52c-3.54-1.12-7.16-2.11-11-3.26,3.14-3,5.9-5.81,8.8-8.43A3.33,3.33,0,0,0,577.61,60.23ZM525.62,162c1.39,5.8,4.23,11.18,6.83,16.57.52,1.07,1.23,2.08.87,3.39-1.94,7.1-3.88,14.2-6,22-5-8.84-8.34-17.58-12.33-26.15-3.29-7.06-.64-8.78-.36-9.71.94-3.08,1.29-9.49,1.34-10.33,0-.06.09-.09.08-.16,0-.6,1.72-2.25,2-2.2C521.7,156.2,524.55,157.45,525.62,162Zm37.57,43.56-.55.13c-3.43-8.31-7-16.59-10.23-25-.89-2.28,1.09-4.3,1.52-6.8a93.5,93.5,0,0,1,11.49,7.69Q564.31,193.51,563.19,205.51Zm31.4-39.78a161,161,0,0,1-1.77,16.72c-3.36-2.19-5.78-4.82-8.38-7.25a2.48,2.48,0,0,1-.9-2c0-6.41-.09-12.81-.15-19.21l1.22-.55c3.06,3.2,6.11,6.41,9.2,9.58A3.15,3.15,0,0,1,594.59,165.73Zm-41.93-29c-.31,2.12-.4,4-.07,4.15h0L566,146.27c.71,4.75.16,9.52.5,14.51-2.41-.5-3.74-2.22-5.81-3.05l1.83-4.79a52.31,52.31,0,0,0-14.92-7L536.67,147c-.68.17-7.77-5.06-8.84-5.4-1.69-1.47,31.13-42.32,33.92-43.29C564.49,101.69,556.48,126.17,552.66,136.76Z"/><path class="cls-9" d="M498.75,128.14l12.39-.77,36.48-61.09c-2.67-.9-2.16,2.27-4,3l-4.16-.52c-8.34-1-16.71-2.15-25.12-1.28-5,.51-9.86,1.68-13.38,5.79-.71-.34-1.24.85-2,.27a16.74,16.74,0,0,0-2.24-9.76c-1.28-2.09-2.91-3.32-5.66-2.62-8.15,2-16.34,4-24.51,5.9-1.2.29-2.39.51-2.66,2-2.18,5.15-.66,9.63,2.44,13.84,1.22,2.12,3.1,1.63,4.93,1.21,5.13-1.19,10.26-2.42,15.88-3.75-1.65,10.19-3.19,19.72-4.75,29.4-9.71-.34-19.07-.62-28.43-1-1.9-.08-3.25.24-3.67,2.28a37.25,37.25,0,0,0-.54,13.68c.27,1.61,1.18,2.14,2.72,2.17,3.38.05,6.76.16,10.13.36,5.72.33,11.48-.17,17.33.77-.57,4.81-1.12,9.35-1.64,13.9-.15,1.24-.74,2.81,1.55,2.66a43.1,43.1,0,0,0,14.54,1.84c1.57.38,3.35,0,4.68,1.25l8.93-14.94A72.6,72.6,0,0,1,498.75,128.14Zm10.65-39.6c6.16-6.05,14.21-3.56,22.22-2.64-7.47,8.64-15.72,15.65-24.17,23.62l-3.22.21C503.4,101.88,503.73,94.12,509.4,88.54Z"/><path class="cls-10" d="M516.07,164.28a156,156,0,0,1-17.42,42.55,17.53,17.53,0,0,1-1.57,1.89l-10.35-5.79c2.44-4.73,4.8-9.24,7.11-13.78,4.68-9.19,7.85-18.93,10.57-28.84a8,8,0,0,0,.38-3.22c-.66-2.77.79-13.33,3.18-15.21,4-3.55,12.31-12.15,15.27-20.49a204.15,204.15,0,0,1,8.15-18.94c5.85-12.38,11.94-24.64,17.92-36.95a2.66,2.66,0,0,1,2.29,0c3.08,1.28,6.41,1.91,9.11,4.18,1.52,1.29,1.94,2.36,1.1,4.06-3.77,7.64-8.09,15-11.75,22.67a333.94,333.94,0,0,1-20.17,36c-2.55,4-6.93,9.78-10.08,13.9C517.41,149.5,516.46,162.72,516.07,164.28Z"/><path class="cls-10" d="M600.16,108.32c2.69.1,5.24-1.31,8.11-.83a87.19,87.19,0,0,1,2.43,17.81c.37,15.29.86,30.58-.6,45.89-1.53,16.07-5.4,31.8-6.66,47.89-.6,7.6-1.3,15.19-2,22.79a41.28,41.28,0,0,1-12.71-1.41c1.83-19,3.52-38,7.07-56.72A154.87,154.87,0,0,0,598.07,162c.37-8.31.3-16.6.28-24.9A154,154,0,0,0,597,118.48c-.2-1.66.2-8.93,3.15-10.16"/><path class="cls-10" d="M468,82.14c-3.1-4.21-4.62-8.7-2.43-13.84,3.23.67,6.08-1,9.09-1.6,5.47-1.12,10.88-2.52,16.56-3.87.28,3.81.16,7.23,1.84,10.32,2.43.45,4.77.92,7.13,1.29,1.43.22,2.72.08,2.45-1.94h0c2.92.73,4.72-1.81,7.18-2.51,7.52-2.15,23.42,0,31.41,1-1.21,4-6.1,6.39-6.79,10.55-7.6-.51-19.11-3.47-26.34,2.72l1.06-8.36c-1.09-.77-2-1-2.77-.48-2.18,12.47-4.66,24.72-6.29,37.13-1.45,11-3.31,22-4,33a43.16,43.16,0,0,1-14.55-1.83c.08-4,.77-8,1.24-12,2.2-18.73,5.22-37.34,8.44-55.91.19-1.09.78-2.26-.54-3.16-1.2.66-.91,1.76-1.1,2.66-.23,1.09-.46,2.24-1.77,2.48C481.11,79.05,474.7,81.35,468,82.14Z"/><path class="cls-10" d="M567.76,244.64c-5.29-7-2.76-14.8-2.22-22.37s1.17-15.2,1.85-22.8c1.13-12.58,2.31-25.16,2.81-37.79q.12-3,0-5.91c-.11-3,.86-5.79,1.3-8.66,1.19-7.84,4.67-14.84,7.18-22.32l4.9-.05c.63,2.53-.19,4.9-.42,7.19-1,9.62-.2,19.23-.24,28.84,0,10.59-1.14,21.08-2.22,31.6-1,10-1.68,20-2.52,29.94-.32,3.8-.69,7.59-1.07,11.37a14.41,14.41,0,0,0,.73,6.77C575.19,243.53,571.91,245.13,567.76,244.64Z"/><path class="cls-10" d="M520.61,240.8c3.41-10.13,5.51-20.62,8.28-30.92,4.61-17.17,8.48-34.56,14.62-51.28,1-2.66,2.17-5.25,3.35-7.82.48-1,1.34-3.7,1.07-4.39l0,0c4.87,1.28,9.12,3.93,13.79,5.86-2.66,6.78-5.23,13.24-7.75,19.72-4.86,12.43-7.6,25.49-11.36,38.24-3.23,11-5.22,22.28-8.77,33.17-.28.87-.36,1.72-1.44,1.92C527.82,245.47,523.59,244.76,520.61,240.8Z"/><path class="cls-10" d="M554.28,140.13c.87-5.12,3.3-9.71,5.26-14.41C564,115,568.29,78.1,569.28,76c-1.25-1.84,8.44-1.41,9,.44,2.09,6.61,2,28.23.67,35-2.31,11.84-6.61,23-11.34,34.07Z"/><path class="cls-10" d="M524.8,109.3c-.73,3.38-2.64,5.7-3.64,8.37-2.24,6-6.51,8.56-12.86,7.94a61.68,61.68,0,0,0-6.52,0c-.22-4.74,1-9.07,1.63-14A180.45,180.45,0,0,0,524.8,109.3Z"/><path class="cls-10" d="M453.32,124.65a60.48,60.48,0,0,0,1-13.26c9.75,1.65,19.17-.16,28.81,1.5.18,4.1-.9,7.93-1.41,12.41C472.24,124.43,463,125,453.32,124.65Z"/></g><g id="Element-6" data-name="Element"><path class="cls-11" d="M337,21.16a21,21,0,0,0-12.48-.69,3.28,3.28,0,0,0-2.8,3.4,185.8,185.8,0,0,0,0,21.24c-.68.39-1.42.72-1.62,1.6l17.53,69,2.12-2.43c.55,2.86,1,5.14,1.45,7.6q-1,.45-2,.87l4.29,16.88s7.69,2.82,10.11,4.29a8,8,0,0,1,2,2.55l0,3.29a11.08,11.08,0,0,0-2.86,4.68c-1.69,2.13.81,2.23,1.52,2.52,5.86,2.31,8.82,6.78,10.83,12.56,2.44,7,4.61,14.06,6.73,21.26,6.09-.07,11.5-1.82,17-4.48-1.36-4.92-2.69-9.71-4.13-14.88,8.3,2.45,16.12,5.19,24.14,7,5.66,1.26,9.3,4,11.55,9.23.68,1.57,1.16,3.92,3.67,4.12h0c4.91.68,8.39-1.83,11.49-5.16,8.95,2.69,18,5,27.11,7.05,1,.24,2.31,1.11,3.2-.4,3.87-3.56,4.67-8,3.77-13-.13-2.42-2.11-2.47-3.74-2.87-12.07-2.94-24.06-6.2-35.88-10.05a4.62,4.62,0,0,1-2.91-1.9c-3.1-5.27-6.23-10.51-9.52-16.07a42,42,0,0,1,10.7,3.11c8.6,3.9,12.46,5.81,21.75,8.28,3.14.83,6.6,2.82,10,.24s4.45-6.06,4.15-10.12a6.25,6.25,0,0,0-1.36-4.23c-3.09-3.37-6.17-6.76-9.13-10.23-5.9-6.91-11.73-13.89-17.82-21.12a61.61,61.61,0,0,1,10.83-.69c6.95,9.5,14.8,18.14,22.15,27.18.72.88,1.3,2.56,3,1.34a41.21,41.21,0,0,0,10-8c1.31-1,1.28-2.11.18-3.3-.81-.87-1.53-1.83-2.3-2.75l-14.86-18c3.5-.35,4.9-2.11,4.8-5,.13-3.43-.3-6.71-2.45-9.56-1.08-2.21-2.75-2.82-5.13-2.17-2.69.73-5.44,1.25-8.24,1.88-2.77-3.86-5.46-7.61-8.69-12.09L462,85.89c1,.16,2.1,1,2.79-.5a32.13,32.13,0,0,0,2.88-13.48c.34-1.54-.67-1.79-1.84-2-10.77-2.27-21.6-4-32.63-4.13a6.23,6.23,0,0,1-4.91-2c-6.49-6.95-13.32-13.55-20.37-19.93a116,116,0,0,0-16-12.16,9.63,9.63,0,0,1-2,2.54c-8.52,6.35-3.49,12.3-3.49,12.3a119.5,119.5,0,0,0,10.31,10.1c3,2.65,5.8,5.6,9.1,8.84l-13.42,1.27c-5.79-6.62-5.79-6.62-12.08-3.82-.78-1.36-1.57-2.74-3-4.93l-28-26.41c-3.29,1.73-6.55,3.6-10.1,5.55.07-4.37.05-8.29.24-12.19A3.35,3.35,0,0,0,337,21.16ZM372.39,129.8c5.08,3.11,10.89,4.88,16.55,6.84,1.12.39,2.34.6,3,1.77,3.66,6.39,7.32,12.78,11.35,19.8-9.77-2.71-18.34-6.48-27.23-9.69-7.32-2.65-6.67-5.74-7.12-6.6-1.52-2.84-5.82-7.61-6.37-8.23-.05-.05,0-.13-.06-.18a4.61,4.61,0,0,1-.14-3C365.55,128.53,368.44,127.39,372.39,129.8Zm57.34,4.06-.29.48c-8.31-3.42-16.66-6.76-24.9-10.34-2.24-1-2.28-3.81-3.74-5.87a92.69,92.69,0,0,1,13.55-2.74Q422,124.6,429.73,133.86Zm-6-50.34a157,157,0,0,1,10.59,13c-3.91.84-7.49.7-11,.83a2.49,2.49,0,0,1-2-.75c-4.54-4.51-9.13-9-13.71-13.44.16-.42.31-.84.47-1.25,4.42.08,8.85.18,13.27.23A3.12,3.12,0,0,1,423.7,83.52Zm-50.09,9.33c1.28,1.71,2.58,3.12,2.89,3h0l13.22-5.7c3.87,2.85,6.86,6.6,10.63,9.88-2.06,1.36-4.21,1.09-6.26,2L392,97.3A52.15,52.15,0,0,0,376.54,103l-6.93,8.47c-.36.6-9.07,2-10.06,2.46-2.23.17-8-51.94-6.74-54.61C357.12,59.71,368.81,82.66,373.61,92.85Z"/><path class="cls-11" d="M329.49,125c2.9-3.32,5.48-6.26,8.19-9.34l-17.54-69c-2.52,1.26.08,3.14-.71,5-.91.72-2.1,1.66-3.3,2.59-6.62,5.18-13.31,10.33-18.62,16.92-3.15,3.89-5.77,8.18-5.34,13.58-.74.26-.27,1.48-1.22,1.62a16.79,16.79,0,0,0-8.5-5.3c-2.38-.56-4.4-.27-5.85,2.17-4.29,7.24-8.71,14.39-13.1,21.56-.65,1.05-1.33,2.06-.46,3.29,2.1,5.19,6.36,7.27,11.52,8,2.36.62,3.34-1.06,4.33-2.65,2.78-4.49,5.53-9,8.55-13.91l17.47,24.1c-7.09,6.65-13.89,13.1-20.78,19.45-1.39,1.29-2.13,2.48-1,4.21a37,37,0,0,0,9.3,10c1.34,1,2.35.68,3.46-.4,2.42-2.36,4.88-4.68,7.4-6.93,4.27-3.82,8-8.27,12.77-11.75,3,3.79,5.83,7.38,8.68,11,.78,1,1.47,2.5,3,.78a43.15,43.15,0,0,0,11.56-9c1.38-.84,2.36-2.36,4.19-2.43l-4.29-16.88A72.06,72.06,0,0,1,329.49,125ZM309,89.54c.05-8.64,7.49-12.6,13.79-17.63.86,11.39,0,22.19-.31,33.8-.19.22-1,1.19-2.13,2.44C314.17,103.2,308.91,97.5,309,89.54Z"/><path class="cls-12" d="M367.3,138.22a156.21,156.21,0,0,1,17.85,42.37,17.79,17.79,0,0,1,.23,2.45L374,186.3c-1.63-5.06-3.17-9.92-4.75-14.77-3.21-9.79-7.87-18.92-13-27.83a8,8,0,0,0-2-2.55c-2.42-1.48-8.89-10-8.53-13,.33-5.37.08-17.31-3.74-25.29a204.19,204.19,0,0,1-7.67-19.14c-4.64-12.88-9-25.85-13.53-38.78.21-.88,1-1.22,1.63-1.61,3.08-1.28,5.87-3.2,9.39-3.51,2-.17,3,.28,3.65,2.08,2.75,8.06,4.9,16.31,7.77,24.33A334.51,334.51,0,0,1,354.5,106c1,4.62,2,11.81,2.74,17C357.78,126.85,366.47,136.84,367.3,138.22Z"/><path class="cls-12" d="M387,39.08c2-1.83,2.77-4.64,5.13-6.34a87.48,87.48,0,0,1,14.33,10.83c11.09,10.53,22.27,21,32.08,32.79,10.3,12.43,18.71,26.26,29.22,38.51,5,5.78,9.84,11.63,14.76,17.46a41.21,41.21,0,0,1-10,8c-12.14-14.68-24.4-29.26-35.19-45A152.94,152.94,0,0,0,423.49,78.4c-5.62-6.13-11.54-11.93-17.44-17.76a154.32,154.32,0,0,0-14.11-12.17c-1.31-1-6.18-6.43-5-9.39"/><path class="cls-12" d="M275.2,114.42c-5.17-.76-9.42-2.85-11.52-8,2.76-1.82,3.6-5,5.29-7.58,3.06-4.67,5.88-9.51,8.93-14.48,2.9,2.49,5.23,5,8.61,6,2-1.41,4-2.74,5.94-4.15,1.16-.86,2-1.87.36-3.11h0c2.58-1.56,2.05-4.63,3.28-6.86,3.79-6.86,16.54-16.6,22.88-21.57,2,3.69.23,8.83,2.68,12.25-5.71,5-15.92,11.12-16.64,20.62l-5.18-6.65c-1.31.23-2.09.7-2.3,1.62,7.3,10.34,14.23,20.75,21.87,30.65,6.77,8.79,13.21,17.83,20.55,26.18a43.15,43.15,0,0,1-11.56,9c-2.81-2.91-5.14-6.21-7.65-9.37-11.72-14.77-22.76-30-33.65-45.43-.63-.9-1-2.14-2.61-1.84-.38,1.31.6,1.89,1.1,2.66.61.93,1.27,1.9.51,3C282.28,102.92,279.39,109.09,275.2,114.42Z"/><path class="cls-12" d="M460.67,158.22C452,157,448.24,149.73,443.26,144s-9.95-11.56-14.84-17.4C420.3,117,412.23,107.23,403.64,98c-1.34-1.44-2.74-2.83-4.18-4.17-2.2-2-3.5-4.69-5.23-7C389.52,80.39,387,73,383.49,65.93l3.42-3.51c2.24,1.33,3.34,3.58,4.8,5.36,6.13,7.47,13.47,13.71,20.26,20.51,7.47,7.5,14.13,15.68,20.81,23.87,6.33,7.75,13,15.27,19.43,22.91q3.69,4.35,7.3,8.77a14.17,14.17,0,0,0,5.31,4.25C465.11,152.16,463.93,155.62,460.67,158.22Z"/><path class="cls-12" d="M424.7,189c-4.78-9.57-10.72-18.45-16.07-27.69-8.91-15.38-18.49-30.38-26-46.54-1.2-2.57-2.19-5.24-3.18-7.9-.39-1.06-1.68-3.55-2.36-3.85v0c4.34-2.56,9.22-3.7,13.88-5.65,2.92,6.67,5.69,13.05,8.49,19.41,5.38,12.21,12.69,23.36,19.08,35,5.5,10,12.09,19.43,17.31,29.63.41.81,1,1.46.34,2.36C433.08,187.14,429.6,189.64,424.7,189Z"/><path class="cls-12" d="M377.14,94.07c-3-4.23-4.55-9.18-6.49-13.89-4.45-10.77-27.56-39.8-28.35-42-2.18-.41,5-7,6.68-6.1,6.16,3.17,21.4,18.5,25.24,24.19,6.75,10,11.66,20.93,16.14,32.08Z"/><path class="cls-12" d="M334.52,93.26c1.87,2.89,2.17,5.88,3.36,8.47,2.68,5.85,1.47,10.66-3.45,14.73a62.89,62.89,0,0,0-4.58,4.65c-3.52-3.2-5.74-7.1-8.74-11A183.18,183.18,0,0,0,334.52,93.26Z"/><path class="cls-12" d="M295,154.8a60,60,0,0,0-8.67-10.07c8.05-5.76,13.41-13.72,21.39-19.39,3,2.76,5,6.23,7.78,9.75C308.16,141.22,302,148.21,295,154.8Z"/></g><g id="Element-7" data-name="Element"><path class="cls-13" d="M140.46,164.34a21.07,21.07,0,0,0-9.42,8.22,3.28,3.28,0,0,0,.37,4.39,184.88,184.88,0,0,0,14.84,15.18,2.66,2.66,0,0,0-.05,2.29l60.65,37.14c-.06-1.06-.11-2.12-.17-3.23l6.33,4.44c-.27.69-.56,1.37-.84,2L227,243.9s7.47-3.35,10.24-4a8.23,8.23,0,0,1,3.22.42l2.31,2.35A11.11,11.11,0,0,0,244,248c.27,2.7,2.13,1,2.84.74,5.81-2.43,11-1.3,16.52,1.43,6.61,3.3,13.1,6.85,19.64,10.52,4.31-4.31,7-9.33,9-15l-13.33-7.78c7.65-4,15.16-7.54,22.14-11.87,4.93-3.06,9.44-3.64,14.71-1.46,1.58.65,3.56,2,5.5.39h0c4-2.95,4.73-7.17,4.63-11.73,8.28-4.32,16.36-9,24.33-13.89.92-.56,2.43-.82,2-2.52.28-5.26-2.26-9-6.36-11.93-1.78-1.65-3.23-.3-4.68.56-10.7,6.33-21.55,12.36-32.7,17.86a4.61,4.61,0,0,1-3.41.68c-5.89-1.61-11.79-3.18-18-4.85a42.09,42.09,0,0,1,9.84-5.25c8.88-3.22,13-4.54,21.35-9.27,2.82-1.6,6.7-2.59,7.33-6.82s-1-7.44-4.09-10.15a6.22,6.22,0,0,0-3.92-2.07c-4.56-.26-9.13-.53-13.68-.95-9-.82-18.07-1.75-27.48-2.67a62.4,62.4,0,0,1,7.27-8.07c11.6,1.95,23.25,2.66,34.82,4,1.13.13,2.72.93,3.11-1.16A41,41,0,0,0,322.92,144c.22-1.65-.56-2.39-2.17-2.48-1.19-.06-2.38-.24-3.57-.37L294,138.67c2.27-2.69,2.05-4.93-.07-7-2.3-2.54-4.9-4.59-8.42-5.13-2.31-.83-3.94-.1-5.19,2-1.41,2.41-3,4.7-4.59,7.11l-14.65-2.59,14-9.73c.83-.58,2.24-.71,1.64-2.3a32.11,32.11,0,0,0-7.33-11.67c-.83-1.34-1.73-.82-2.74-.17-9.29,5.89-18.27,12.22-26.25,19.83a6.21,6.21,0,0,1-4.89,2c-9.49-.44-19-.4-28.49,0a116.56,116.56,0,0,0-19.91,2.45,9.74,9.74,0,0,1,.33,3.23c-1.67,10.5,6.08,11.25,6.08,11.25a119.75,119.75,0,0,0,14.42,0c4-.22,8.06,0,12.68,0l-8.72,10.28c-8.76-.69-8.76-.69-11.32,5.71-1.5-.43-3-.86-5.6-1.41l-38.49.67c-1.15,3.53-2.18,7.15-3.37,11-3-3.18-5.74-6-8.33-8.9A3.34,3.34,0,0,0,140.46,164.34Zm101.09,53.07c5.81-1.32,11.2-4.11,16.62-6.66,1.07-.51,2.09-1.21,3.39-.84l21.93,6.25c-8.88,4.89-17.65,8.17-26.25,12.08-7.09,3.22-8.78.55-9.7.26-3.07-1-9.47-1.39-10.31-1.45-.06,0-.09-.08-.16-.08-.6,0-2.23-1.74-2.18-2C235.76,221.28,237,218.44,241.55,217.41Zm43.89-37.15.13.55c-8.34,3.35-16.64,6.8-25,10-2.29.87-4.29-1.13-6.78-1.59a92.68,92.68,0,0,1,7.8-11.42ZM246,148.42a161.76,161.76,0,0,1,16.69,1.94c-2.22,3.34-4.87,5.74-7.33,8.31a2.5,2.5,0,0,1-2,.89c-6.4-.06-12.79-.05-19.19-.05-.18-.41-.36-.82-.53-1.23,3.22-3,6.46-6,9.66-9.1A3.12,3.12,0,0,1,246,148.42ZM216.66,190.1c2.11.33,4,.43,4.15.11h0q2.73-6.66,5.48-13.32c4.76-.66,9.51-.07,14.5-.36-.52,2.41-2.25,3.73-3.11,5.79l-4.76-1.88a52.46,52.46,0,0,0-7.11,14.87l.95,10.9c.16.67-5.14,7.72-5.49,8.79-1.49,1.68-42-31.6-42.9-34.4C181.74,177.89,206.12,186.16,216.66,190.1Z"/><path class="cls-13" d="M207.5,244c-.23-4.4-.44-8.31-.65-12.41L146.2,194.42c-.93,2.66,2.24,2.19,3,4.08l-.55,4.15c-1.13,8.34-2.33,16.7-1.54,25.13.46,5,1.58,9.89,5.65,13.45-.35.71.83,1.26.25,2a16.77,16.77,0,0,0-9.78,2.14c-2.09,1.27-3.34,2.89-2.67,5.64,2,8.18,3.79,16.4,5.65,24.6.27,1.2.48,2.4,2,2.67,5.11,2.25,9.61.77,13.85-2.29,2.12-1.21,1.65-3.09,1.25-4.92-1.14-5.16-2.31-10.3-3.58-15.94L189,260.21c-.44,9.71-.81,19.08-1.32,28.44-.1,1.9.2,3.26,2.24,3.7a37.15,37.15,0,0,0,13.66.68c1.61-.26,2.15-1.15,2.19-2.7.09-3.38.24-6.77.47-10.14.39-5.71,0-11.49,1-17.33,4.79.62,9.32,1.21,13.86,1.78,1.24.16,2.8.77,2.68-1.52a43.46,43.46,0,0,0,2-14.55c.4-1.56,0-3.34,1.3-4.67l-14.83-9.08A72.85,72.85,0,0,1,207.5,244ZM168.05,232.9c-6-6.23-3.42-14.26-2.41-22.26,8.55,7.55,15.47,15.89,23.34,24.42,0,.29.09,1.57.18,3.23C181.31,239,173.57,238.64,168.05,232.9Z"/><path class="cls-14" d="M243.78,227a156,156,0,0,1,42.32,17.87,17.93,17.93,0,0,1,1.88,1.59c-2,3.46-3.9,6.82-5.9,10.3-4.69-2.49-9.18-4.89-13.69-7.25-9.13-4.78-18.83-8.06-28.7-10.88a8.18,8.18,0,0,0-3.21-.42c-2.77.64-13.31-.91-15.16-3.33-3.51-4.08-12-12.45-20.31-15.5A202.69,202.69,0,0,1,182.17,211c-12.31-6-24.5-12.21-36.73-18.32a2.66,2.66,0,0,1,0-2.29c1.32-3.07,2-6.4,4.28-9.07,1.29-1.52,2.37-1.93,4.06-1.07,7.59,3.85,14.88,8.25,22.52,12a333.38,333.38,0,0,1,35.78,20.56c4,2.59,9.7,7,13.79,10.23C229,225.51,242.22,226.59,243.78,227Z"/><path class="cls-14" d="M188.74,142.26c.12-2.69-1.26-5.26-.75-8.13a87.64,87.64,0,0,1,17.82-2.25c15.27-.21,30.55-.55,45.83,1.07,16,1.7,31.7,5.73,47.77,7.16,7.59.67,15.16,1.45,22.74,2.18A41,41,0,0,1,320.61,155c-18.93-2-37.87-3.91-56.58-7.65a152.92,152.92,0,0,0-21.73-2.45c-8.29-.46-16.58-.48-24.87-.54a156,156,0,0,0-18.58,1.15c-1.66.19-8.92-.29-10.11-3.25"/><path class="cls-14" d="M161.23,274.31c-4.24,3.06-8.73,4.54-13.85,2.29.7-3.23-.91-6.1-1.5-9.12-1.07-5.49-2.41-10.92-3.7-16.61,3.81-.24,7.22-.09,10.33-1.74.47-2.43,1-4.77,1.36-7.13.23-1.42.1-2.71-1.91-2.47h0c.76-2.92-1.75-4.75-2.43-7.21-2.07-7.56.27-23.45,1.35-31.43,4,1.24,6.31,6.16,10.46,6.9-.58,7.6-3.66,19.09,2.45,26.39l-8.35-1.14c-.77,1.08-1,2-.5,2.77,12.43,2.3,24.65,4.91,37,6.67,11,1.56,21.89,3.53,33,4.38a43.2,43.2,0,0,1-2,14.55c-4-.12-8-.86-12-1.37-18.69-2.39-37.24-5.6-55.77-9-1.08-.2-2.25-.8-3.16.51.65,1.2,1.75.93,2.65,1.13,1.09.24,2.23.48,2.46,1.8C158.28,261.13,160.51,267.56,161.23,274.31Z"/><path class="cls-14" d="M324.58,176.08c-7.05,5.22-14.81,2.61-22.37,2S287,176.75,279.46,176c-12.56-1.26-25.12-2.57-37.73-3.2q-2.94-.15-5.9-.07c-3,.08-5.77-.92-8.64-1.39-7.82-1.27-14.77-4.83-22.23-7.41V159c2.53-.62,4.89.23,7.17.48,9.6,1.07,19.21.41,28.81.54,10.58.14,21.05,1.35,31.54,2.54,9.95,1.13,19.93,1.89,29.89,2.84q5.69.54,11.35,1.18a14.36,14.36,0,0,0,6.76-.67C323.54,168.64,325.11,171.94,324.58,176.08Z"/><path class="cls-14" d="M320.26,223.24c-10.09-3.52-20.54-5.73-30.8-8.6-17.11-4.79-34.43-8.84-51.08-15.17-2.65-1-5.22-2.22-7.78-3.43-1-.48-3.68-1.38-4.37-1.11l0,0c1.32-4.86,4-9.09,6-13.75,6.74,2.74,13.17,5.37,19.62,8,12.36,5,25.37,7.86,38.08,11.75,10.93,3.35,22.2,5.46,33.05,9.12.86.29,1.71.38,1.89,1.46C325,216.07,324.25,220.29,320.26,223.24Z"/><path class="cls-14" d="M220,188.51c-5.11-.93-9.66-3.4-14.34-5.41-10.69-4.61-47.48-9.25-49.57-10.26-1.85,1.23-1.32-8.47.53-9,6.62-2,28.22-1.71,34.94-.32,11.81,2.44,23,6.85,33.93,11.7Z"/><path class="cls-14" d="M189,217.7c3.36.77,5.66,2.7,8.32,3.72,6,2.32,8.48,6.61,7.8,13a59,59,0,0,0,0,6.52c-4.74.17-9.05-1.07-13.92-1.78A186.23,186.23,0,0,0,189,217.7Z"/><path class="cls-14" d="M203.55,289.41a60.07,60.07,0,0,0-13.24-1.16c1.75-9.74,0-19.19,1.8-28.83,4.09-.14,7.91,1,12.37,1.55C203.52,270.47,204,279.76,203.55,289.41Z"/></g><g id="Element-8" data-name="Element"><path class="cls-15" d="M100.6,405.36a21.09,21.09,0,0,0-.81,12.49,3.27,3.27,0,0,0,3.37,2.83,183.21,183.21,0,0,0,21.22.15c.38.69.71,1.44,1.59,1.65L195,405.56l-2.41-2.15,7.61-1.38c.3.69.57,1.37.85,2.05l16.9-4.14s2.88-7.67,4.38-10.09a8,8,0,0,1,2.56-2h3.29a11.19,11.19,0,0,0,4.65,2.91c2.11,1.7,2.24-.79,2.53-1.5,2.36-5.84,6.85-8.76,12.65-10.73,7-2.38,14.08-4.48,21.29-6.55,0-6.09-1.7-11.52-4.31-17l-14.91,4c2.52-8.29,5.34-16.08,7.19-24.1,1.3-5.66,4.06-9.27,9.32-11.48,1.58-.66,3.93-1.13,4.15-3.63h0c.72-4.91-1.75-8.41-5-11.55,2.77-8.93,5.13-18,7.29-27.07.25-1.05,1.13-2.3-.36-3.21-3.53-3.9-8-4.75-12.94-3.89-2.42.1-2.49,2.08-2.9,3.72-3.05,12.05-6.42,24-10.37,35.81a4.59,4.59,0,0,1-1.93,2.9c-5.28,3.06-10.55,6.14-16.14,9.39a42.81,42.81,0,0,1,3.21-10.68c4-8.58,5.92-12.42,8.47-21.7.86-3.13,2.88-6.59.33-10s-6-4.5-10.07-4.24a6.17,6.17,0,0,0-4.23,1.32c-3.4,3.06-6.81,6.11-10.31,9.05-7,5.84-14,11.61-21.26,17.64a62.27,62.27,0,0,1-.59-10.85c9.55-6.87,18.25-14.64,27.35-21.93.89-.71,2.57-1.28,1.37-3a41.27,41.27,0,0,0-7.92-10c-1-1.32-2.1-1.29-3.3-.2-.88.8-1.84,1.51-2.77,2.27l-18.06,14.71c-.32-3.5-2.06-4.93-5-4.85-3.42-.16-6.71.24-9.57,2.36-2.22,1.06-2.85,2.74-2.22,5.12.71,2.7,1.2,5.46,1.8,8.27l-12.15,8.58c1.08-6.17,2-11.48,2.93-16.78.18-1,1.08-2.09-.47-2.79a32,32,0,0,0-13.44-3c-1.54-.35-1.79.65-2,1.83-2.37,10.75-4.21,21.58-4.43,32.62a6.19,6.19,0,0,1-2,4.89c-7,6.44-13.66,13.22-20.1,20.21a117.33,117.33,0,0,0-12.29,15.87,9.91,9.91,0,0,1,2.52,2c6.27,8.58,12.26,3.61,12.26,3.61a119.28,119.28,0,0,0,10.18-10.23c2.68-3,5.65-5.75,8.91-9,.42,4.88.79,9.19,1.15,13.45-6.66,5.73-6.66,5.73-3.93,12.06-1.36.76-2.74,1.54-5,3l-26.64,27.82c1.7,3.3,3.54,6.58,5.45,10.16-4.36-.11-8.27-.12-12.17-.35A3.33,3.33,0,0,0,100.6,405.36ZM209.44,371c3.15-5.07,5-10.87,7-16.51.39-1.12.61-2.34,1.79-3,6.42-3.6,12.83-7.21,19.88-11.18-2.79,9.76-6.64,18.3-9.93,27.17-2.71,7.3-5.79,6.62-6.65,7.07-2.85,1.49-7.65,5.75-8.28,6.3-.05,0-.13,0-.18.05a4.6,4.6,0,0,1-3,.12C208.11,377.78,207,374.87,209.44,371ZM214,313.59l.48.29c-3.5,8.28-6.9,16.61-10.56,24.83-1,2.23-3.82,2.24-5.9,3.69a93,93,0,0,1-2.6-13.59Zm-50.34,5.57a161.74,161.74,0,0,1,13.13-10.49c.8,3.93.64,7.51.73,11.06a2.48,2.48,0,0,1-.77,2c-4.54,4.51-9,9.06-13.55,13.6l-1.24-.48c.12-4.43.26-8.86.35-13.28A3.09,3.09,0,0,1,163.68,319.16Zm8.86,50.22c1.72-1.27,3.14-2.55,3-2.87h0L170,353.23c2.88-3.84,6.66-6.8,10-10.55,1.34,2.07,1,4.23,1.91,6.28L177.15,351a52.77,52.77,0,0,0,5.53,15.52l8.4,7c.59.36,1.86,9.09,2.37,10.09.14,2.24-52,7.54-54.62,6.25C139.29,385.59,162.32,374.09,172.54,369.38Z"/><path class="cls-15" d="M204.28,413.84,195,405.56,126,422.48c1.23,2.54,3.13-.05,5,.76.71.92,1.64,2.12,2.56,3.33,5.12,6.67,10.2,13.41,16.73,18.79,3.86,3.19,8.13,5.85,13.52,5.47.25.75,1.48.29,1.6,1.24a16.74,16.74,0,0,0-5.36,8.45c-.58,2.38-.31,4.41,2.11,5.88,7.19,4.36,14.29,8.85,21.42,13.31,1,.66,2,1.35,3.28.49,5.2-2.06,7.32-6.3,8.13-11.46.65-2.36-1-3.35-2.6-4.36-4.46-2.82-8.94-5.61-13.82-8.68l24.24-17.27c6.58,7.16,13,14,19.24,21,1.27,1.41,2.45,2.15,4.19,1a37.19,37.19,0,0,0,10.11-9.22c1-1.33.7-2.34-.37-3.46q-3.51-3.67-6.86-7.48c-3.78-4.3-8.18-8.05-11.62-12.88,3.81-3,7.43-5.77,11-8.59,1-.78,2.51-1.45.8-3a43.09,43.09,0,0,0-8.91-11.66c-.83-1.38-2.34-2.38-2.39-4.21l-16.9,4.14A72.13,72.13,0,0,1,204.28,413.84Zm-35.64,20.23c-8.62-.14-12.51-7.62-17.48-14,11.38-.75,22.17.2,33.77.62l2.41,2.15C182.35,429,176.6,434.19,168.64,434.07Z"/><path class="cls-16" d="M217.81,376.11a155.86,155.86,0,0,1,42.49-17.47,16.35,16.35,0,0,1,2.45-.22c1.06,3.85,2.08,7.58,3.15,11.45-5.07,1.58-9.94,3.07-14.8,4.62-9.81,3.12-19,7.7-27.92,12.72a8.07,8.07,0,0,0-2.56,2c-1.5,2.42-10,8.81-13,8.42-5.37-.38-17.3-.23-25.3,3.52a205,205,0,0,1-19.19,7.5c-12.91,4.52-25.91,8.8-38.87,13.18-.88-.21-1.2-.95-1.59-1.64-1.25-3.1-3.14-5.91-3.42-9.43-.16-2,.31-3,2.11-3.63,8.07-2.69,16.34-4.76,24.37-7.56a333.06,333.06,0,0,1,39.78-10.93c4.63-1,11.83-1.93,17-2.59C206.36,385.54,216.42,376.93,217.81,376.11Z"/><path class="cls-16" d="M119,355.52c-1.82-2-4.62-2.81-6.3-5.19a87.65,87.65,0,0,1,11-14.25c10.62-11,21.14-22.09,33-31.81,12.5-10.2,26.4-18.49,38.73-28.9,5.82-4.91,11.71-9.74,17.57-14.61a41.17,41.17,0,0,1,7.92,10c-14.77,12-29.45,24.15-45.29,34.81a154.67,154.67,0,0,0-17,13.71c-6.17,5.57-12,11.45-17.9,17.3a154.44,154.44,0,0,0-12.28,14c-1,1.31-6.48,6.13-9.42,4.89"/><path class="cls-16" d="M193.2,468.09c-.82,5.16-2.94,9.4-8.13,11.45-1.8-2.77-5-3.65-7.53-5.36-4.64-3.1-9.44-6-14.38-9.08,2.51-2.87,5-5.18,6.05-8.55-1.4-2.05-2.71-4.05-4.1-6-.84-1.17-1.85-2-3.1-.39h0c-1.54-2.59-4.61-2.09-6.83-3.35-6.81-3.85-16.43-16.7-21.34-23.1,3.71-2,8.83-.14,12.27-2.57,5,5.77,11,16.05,20.44,16.85l-6.69,5.13c.22,1.31.69,2.09,1.6,2.31,10.4-7.21,20.86-14.06,30.82-21.61,8.84-6.69,17.93-13.06,26.34-20.33a43.14,43.14,0,0,1,8.91,11.66c-2.93,2.78-6.25,5.08-9.43,7.56-14.86,11.6-30.21,22.52-45.68,33.27-.91.63-2.16,1-1.87,2.6,1.31.39,1.89-.58,2.67-1.08.94-.6,1.91-1.25,3-.48C181.77,460.9,187.9,463.85,193.2,468.09Z"/><path class="cls-16" d="M238.63,282.84c-1.26,8.68-8.58,12.36-14.34,17.3s-11.63,9.84-17.51,14.69c-9.74,8-19.52,16-28.85,24.54-1.45,1.33-2.85,2.72-4.2,4.15-2,2.18-4.72,3.46-7.07,5.16-6.42,4.66-13.83,7.09-20.92,10.57l-3.47-3.46c1.35-2.23,3.61-3.31,5.4-4.75,7.52-6.07,13.82-13.36,20.67-20.09,7.56-7.42,15.79-14,24-20.62,7.8-6.27,15.37-12.82,23.06-19.23q4.4-3.66,8.84-7.23a14.48,14.48,0,0,0,4.29-5.28C232.62,278.33,236.07,279.54,238.63,282.84Z"/><path class="cls-16" d="M269,319.12c-9.6,4.7-18.52,10.56-27.8,15.83-15.44,8.78-30.52,18.23-46.73,25.61-2.58,1.17-5.25,2.14-7.91,3.1-1.07.39-3.57,1.65-3.87,2.33h0c-2.52-4.36-3.62-9.26-5.53-13.94,6.7-2.86,13.09-5.58,19.47-8.33,12.25-5.27,23.46-12.49,35.17-18.77,10.07-5.41,19.51-11.93,29.74-17.06.82-.4,1.48-.95,2.37-.32C267.28,310.71,269.75,314.22,269,319.12Z"/><path class="cls-16" d="M173.8,365.86c-4.26,3-9.22,4.47-13.94,6.37-10.8,4.36-40,27.22-42.2,28-.43,2.18-6.93-5-6-6.74,3.22-6.13,18.67-21.25,24.39-25,10-6.67,21-11.48,32.19-15.86Z"/><path class="cls-16" d="M172.59,408.52c2.91-1.85,5.9-2.13,8.5-3.29,5.86-2.63,10.66-1.37,14.68,3.59a64.77,64.77,0,0,0,4.6,4.63c-3.22,3.49-7.14,5.67-11.07,8.64A182.08,182.08,0,0,0,172.59,408.52Z"/><path class="cls-16" d="M233.71,448.66a61,61,0,0,0-10.14,8.59c-5.67-8.11-13.58-13.55-19.17-21.58,2.78-3,6.27-4.93,9.81-7.71C220.27,435.34,227.19,441.55,233.71,448.66Z"/></g><path d="M95.26,810.54,67.44,749.93a1.35,1.35,0,0,0-1.26-.84H40.89a.93.93,0,0,0-1.06,1v59.77a2.53,2.53,0,0,1-2.53,2.53H17.91a2.53,2.53,0,0,1-2.53-2.53V667.64a2.53,2.53,0,0,1,2.53-2.53h58a47,47,0,0,1,22.76,5.37A38.11,38.11,0,0,1,114,685.63a45.16,45.16,0,0,1,5.48,22.42q0,14.52-7.48,24.73T91.26,747a.67.67,0,0,0-.64.43.89.89,0,0,0,0,.84l29.72,61.24a3.31,3.31,0,0,1,.42,1.27q0,1.68-2.31,1.68H98.21A3,3,0,0,1,95.26,810.54ZM39.83,687.21v41.88a.93.93,0,0,0,1.06,1.06H72.5q10.11,0,16.33-6t6.22-15.89q0-9.9-6.22-16t-16.33-6.1H40.89A.93.93,0,0,0,39.83,687.21Z"/><path d="M166.5,808.12a45.25,45.25,0,0,1-18.87-18.2Q141,778.13,141,762.77v-48q0-15.15,6.75-26.83a46.33,46.33,0,0,1,18.86-18.1q12.12-6.42,27.93-6.42,16,0,28.13,6.42A46.33,46.33,0,0,1,241.52,688q6.75,11.68,6.75,26.83v48q0,15.36-6.75,27.15a46.06,46.06,0,0,1-18.86,18.2q-12.12,6.43-28.13,6.42Q178.72,814.54,166.5,808.12Zm49.31-22.83q8-8.2,8-21.68v-49q0-13.68-8-21.89t-21.28-8.21q-13.08,0-21.08,8.21t-8,21.89v49q0,13.47,8,21.68t21.08,8.21Q207.81,793.5,215.81,785.29Z"/><path d="M294.42,808.86q-12.23-5.25-18.86-14.73t-6.64-22.31v-5.26a2.53,2.53,0,0,1,2.53-2.53h18.76a2.53,2.53,0,0,1,2.53,2.53v4q0,9.68,8.64,16.1t23.6,6.42q12.86,0,19.39-5.48a17.54,17.54,0,0,0,6.53-14.1,14.65,14.65,0,0,0-3.58-10A33.5,33.5,0,0,0,337.1,756q-6.64-3.36-19.92-8.41A208.36,208.36,0,0,1,293,737.3a45,45,0,0,1-15.49-13.15q-6.22-8.31-6.22-20.73,0-18.52,13.49-29.26t36-10.73q15.8,0,27.92,5.47a44.43,44.43,0,0,1,18.86,15.26,38.87,38.87,0,0,1,6.75,22.62v3.58a2.53,2.53,0,0,1-2.53,2.53h-19a2.53,2.53,0,0,1-2.53-2.53v-2.31q0-9.9-8.11-16.73t-22.45-6.85q-11.59,0-18,4.85T295.26,703a15.44,15.44,0,0,0,3.38,10.31,30.12,30.12,0,0,0,10.11,7.26q6.75,3.27,20.87,8.31a237.27,237.27,0,0,1,23.92,10.32,45.89,45.89,0,0,1,15.38,12.94q6.43,8.31,6.43,20.73,0,18.95-14,30.1t-38.26,11.15Q306.65,814.12,294.42,808.86Z"/><path d="M496,665.85a2.45,2.45,0,0,1,.74,1.79v16.2a2.53,2.53,0,0,1-2.53,2.53H455.44a.93.93,0,0,0-1.05,1V809.91a2.53,2.53,0,0,1-2.53,2.53H432.47a2.53,2.53,0,0,1-2.53-2.53V687.42a.93.93,0,0,0-1.06-1h-37.3a2.53,2.53,0,0,1-2.53-2.53v-16.2a2.53,2.53,0,0,1,2.53-2.53H494.22A2.45,2.45,0,0,1,496,665.85Z"/><path d="M523.72,810.33V667.22a1.87,1.87,0,0,1,2.11-2.11h10.75a1.87,1.87,0,0,1,2.11,2.11V798.55a.74.74,0,0,0,.84.84h74.4a1.86,1.86,0,0,1,2.11,2.1v8.84a1.87,1.87,0,0,1-2.11,2.11h-88.1A1.87,1.87,0,0,1,523.72,810.33Z"/><path d="M716.14,810.76l-8.43-26.52a.82.82,0,0,0-.84-.63h-63a.82.82,0,0,0-.84.63l-8.43,26.52a2.45,2.45,0,0,1-2.53,1.68H620.67c-1.55,0-2.11-.77-1.69-2.32L665.56,666.8a2.46,2.46,0,0,1,2.53-1.69h14.33A2.45,2.45,0,0,1,685,666.8l46.79,143.32.21.85c0,1-.63,1.47-1.9,1.47H718.67A2.46,2.46,0,0,1,716.14,810.76Zm-68.81-39.68a1,1,0,0,0,.74.32h54.37a1,1,0,0,0,.74-.32.58.58,0,0,0,.11-.73l-27.4-85.88a.69.69,0,0,0-1.27,0l-27.39,85.88A.56.56,0,0,0,647.33,771.08Z"/><path d="M812,736.88q11.37,4.64,17.28,13.68t5.9,21.89q0,18.94-12.12,29.47t-31.93,10.52h-51a1.86,1.86,0,0,1-2.11-2.11V667.22a1.87,1.87,0,0,1,2.11-2.11H789.7q20.43,0,32.14,10.1t11.69,28.42q0,11.58-5.58,19.68A34.63,34.63,0,0,1,812,735.62Q811,736.25,812,736.88ZM753,679v50.51a.75.75,0,0,0,.85.85H789.7q13.27,0,21.18-7t7.9-18.52q0-12.21-7.9-19.47t-21.18-7.26H753.87A.75.75,0,0,0,753,679Zm59.33,112.6q7.9-7.58,7.91-20.41t-8.12-20.52Q804,743,790.33,743H753.87a.75.75,0,0,0-.85.84v54.51a.75.75,0,0,0,.85.84h37.3Q804.45,799.18,812.35,791.6Z"/></g></svg>